<svg xmlns="http://www.w3.org/2000/svg" xmlns:xlink="http://www.w3.org/1999/xlink" viewBox="0 0 42.96 40.65"><defs><style>.cls-1{fill:none;}.cls-2{clip-path:url(#clip-path);}.cls-3{fill:#4d4d4d;}</style><clipPath id="clip-path" transform="translate(0 -0.06)"><rect class="cls-1" width="43" height="40.8"/></clipPath></defs><g id="Capa_2" data-name="Capa 2"><g id="Seccion_Anuncios_02" data-name="Seccion Anuncios 02"><g class="cls-2"><path class="cls-3" d="M11.49,25.92a.84.84,0,0,0,.31-1.14.85.85,0,0,0-1.15-.31.84.84,0,0,0-.3,1.15.82.82,0,0,0,1.14.3Z" transform="translate(0 -0.06)"/><path class="cls-3" d="M8.05,31.72,12.28,39a3.35,3.35,0,1,0,5.81-3.35l-2.52-4.36,2.18-1.26a.84.84,0,0,0,.31-1.15L17,27,33,23.87a2.51,2.51,0,0,0,2-3.77l-2.79-4.83,1.78-2.7a.82.82,0,0,0,0-.88L32.42,8.78a.84.84,0,0,0-.77-.41l-3.23.19L25.32,3.2a2.49,2.49,0,0,0-2.15-1.26h0A2.51,2.51,0,0,0,21,3.1l-11,14L2.94,21.18A5.87,5.87,0,0,0,8.05,31.72Zm8.59,4.8a1.68,1.68,0,0,1-2.91,1.68L9.54,30.93l2.9-1.68,4.2,7.27Zm-1.9-6.66-.84-1.45,1.45-.84L16.19,29ZM31.23,10.07l1.16,2-1,1.57-2-3.47ZM22.43,4a.79.79,0,0,1,.72-.4.81.81,0,0,1,.72.42l9.76,16.9a.84.84,0,0,1-.71,1.26,2.34,2.34,0,0,0-.46.08L22.14,4.4,22.43,4ZM21,5.82l9.7,16.8L16.08,25.49l-4.45-7.71ZM2.24,28.36a4.2,4.2,0,0,1,1.54-5.73l6.54-3.78,4.19,7.27L8,29.9a4.21,4.21,0,0,1-5.73-1.54Z" transform="translate(0 -0.06)"/><path class="cls-3" d="M8.89,26.46a.84.84,0,0,0-1.14-.31L6.29,27a.84.84,0,0,1-1.14-.31.84.84,0,1,0-1.46.84,2.52,2.52,0,0,0,3.44.92l1.46-.84a.83.83,0,0,0,.3-1.14Z" transform="translate(0 -0.06)"/><path class="cls-3" d="M41.71,3.73,37,6.34a.83.83,0,1,0,.81,1.46l4.68-2.6a.84.84,0,0,0-.82-1.47Z" transform="translate(0 -0.06)"/><path class="cls-3" d="M41.22,12.42,38,11.55a.84.84,0,0,0-.44,1.63l3.25.86a.84.84,0,0,0,.43-1.62Z" transform="translate(0 -0.06)"/><path class="cls-3" d="M33.07.69,32.2,3.93a.84.84,0,0,0,1.63.43l.86-3.24a.83.83,0,0,0-.59-1,.84.84,0,0,0-1,.6Z" transform="translate(0 -0.06)"/></g></g></g></svg>