<svg xmlns="http://www.w3.org/2000/svg" viewBox="0 0 97.02 115"><defs><style>.cls-1{isolation:isolate;}.cls-2{fill:#72a7d3;}.cls-3{fill:#e8f4fc;}.cls-4{fill:#a1c2e2;}.cls-5{fill:#4061bf;}.cls-6{fill:none;stroke:#231f20;stroke-miterlimit:10;stroke-width:0.33px;}.cls-7{fill:#bababa;}.cls-8{fill:#e52c2c;}.cls-9{fill:#2ac461;}.cls-10{fill:#f9f44b;}.cls-11{fill:#4475e2;}.cls-12{fill:#3f3f3f;}.cls-13{fill:#618c9b;}.cls-14,.cls-15{fill:#2d2d2d;}.cls-14{opacity:0.5;mix-blend-mode:multiply;}.cls-16{fill:#aaa;mix-blend-mode:soft-light;}</style></defs><g class="cls-1"><g id="Capa_2" data-name="Capa 2"><g id="Seccion_Progreso_-_Mis_Medallas" data-name="Seccion Progreso - Mis Medallas"><path class="cls-2" d="M.27,115c17.31-3.61,17.58-18.34,17.85-32.59.19-10.22.39-20.78,7-26.93,7.24-6.72,16.17-9.56,26.56-8.45a43.56,43.56,0,0,1,13.57,3.74l.59-1.16a44,44,0,0,0-14-3.87c-7.42-.8-18.24.07-27.62,8.79-7,6.52-7.22,17.37-7.42,27.85-.27,14.37-.52,28-16.82,31.35Z"/><rect class="cls-2" x="46.04" y="34.82" width="35.42" height="39.86" rx="2.64" transform="translate(105.66 127.59) rotate(-160.58)"/><rect class="cls-3" x="52.36" y="33.23" width="26.89" height="34.53" transform="translate(19.88 -18.58) rotate(18.88)"/><path class="cls-4" d="M58.41,30.58c2.22,2.22,5.79,3.84,10.72,5.53,5.81,2,10.05,2.89,13.44,1.87L58.67,29.8Z"/><path class="cls-3" d="M75.47,58.7,53.14,51.06c-3-1-3.92,1.85-5.13,5.38h0c-1.2,3.52-2.28,6.35.76,7.39L71.1,71.47c3,1,3.92-1.86,5.13-5.38h0C77.43,62.56,78.51,59.74,75.47,58.7Z"/><rect class="cls-3" x="45.22" y="63.46" width="9.97" height="12.98" transform="translate(25.34 -12.48) rotate(18.88)"/><rect class="cls-5" x="42.96" y="76.07" width="9.97" height="0.95" transform="translate(27.35 -11.4) rotate(18.88)"/><polygon class="cls-3" points="47.8 92.37 38.37 89.15 42.36 75.13 53.13 78.81 47.8 92.37"/><path class="cls-4" d="M35.75,88.25s.41-6.56,4.42-4.39,5.94,7.94,5.94,7.94Z"/><rect class="cls-5" x="35.26" y="90.29" width="12.74" height="0.95" transform="translate(31.61 -8.59) rotate(18.88)"/><path class="cls-4" d="M46.63,92l1.18.4L48.75,90C47.15,90.06,46.63,92,46.63,92Z"/><rect class="cls-3" x="61.23" y="68.94" width="9.97" height="12.98" transform="translate(104.47 168.23) rotate(-161.12)"/><rect class="cls-5" x="58.98" y="81.54" width="9.97" height="0.95" transform="translate(97.95 180.32) rotate(-161.12)"/><polygon class="cls-3" points="49.28 24.92 43.59 33.26 54.1 38.67 58.66 29.8 49.28 24.92"/><polygon class="cls-6" points="40.18 15.77 33.16 22.86 41.89 32.38 49.79 24.41 40.18 15.77"/><polygon class="cls-3" points="40.18 15.77 33.16 22.86 41.89 32.38 49.79 24.41 40.18 15.77"/><rect class="cls-5" x="31.35" y="18.97" width="10.35" height="0.41" transform="translate(-2.8 31.64) rotate(-45.28)"/><path class="cls-3" d="M32.27,10h2.11a3.21,3.21,0,0,1,3.21,3.21V20.6a0,0,0,0,1,0,0h-10a0,0,0,0,1,0,0v-6A4.65,4.65,0,0,1,32.27,10Z" transform="translate(-1.2 27.7) rotate(-45.28)"/><polygon class="cls-3" points="54.38 94.62 63.82 97.85 69.25 84.33 58.48 80.64 54.38 94.62"/><path class="cls-4" d="M66.44,98.75s3.69-5.44-.81-6.18-9.55,2.63-9.55,2.63Z"/><rect class="cls-5" x="53.89" y="96.66" width="12.74" height="0.95" transform="translate(85.84 208.54) rotate(-161.12)"/><path class="cls-4" d="M55.56,95l-1.18-.41.73-2.46C56.32,93.19,55.56,95,55.56,95Z"/><path class="cls-4" d="M39.76,15.62l1-3A1.46,1.46,0,1,0,38,11.71L37.21,14a3.25,3.25,0,0,0-3,1.43C32.59,18,35.72,19.7,35.72,19.7Z"/><polygon class="cls-3" points="83.62 65.86 93.35 63.67 91.13 50.95 80.18 53.4 83.62 65.86"/><rect class="cls-5" x="83.35" y="64.76" width="10.35" height="0.41" transform="translate(189.13 108.96) rotate(167.35)"/><path class="cls-3" d="M94.75,69.9l-1.31-5.83L86.61,65.6h0l-2.9.65v0l-1.84,3.44a1.46,1.46,0,0,0,2.58,1.38l.24-.44.63,2.8a3.22,3.22,0,0,0,3.84,2.44l2.06-.47A4.65,4.65,0,0,0,94.75,69.9Z"/><path class="cls-5" d="M90,51.19a2.35,2.35,0,0,0-.57-1.85l-8.58,3.9Z"/><polygon class="cls-3" points="85.23 40.03 79.75 52.05 80.39 53.47 89.47 49.34 85.23 40.03"/><path class="cls-5" d="M84.11,38.51A1.58,1.58,0,0,1,85.23,40l-5.48,12-.23-.12Z"/><path class="cls-5" d="M54.1,38.67a2.58,2.58,0,0,0,1.33.6l3.23-9.47Z"/><path class="cls-5" d="M42.17,32.1h0a2.69,2.69,0,0,0,1.42,1.16l5.69-8.34Z"/><rect class="cls-5" x="58.03" y="42.43" width="17.56" height="10.23" transform="translate(18.98 -19.06) rotate(18.88)"/><rect class="cls-7" x="58.55" y="42.88" width="16.53" height="9.32" transform="translate(18.98 -19.06) rotate(18.88)"/><path class="cls-8" d="M62.86,43.61a.81.81,0,1,1-1.54-.52.81.81,0,0,1,1.54.52Z"/><path class="cls-9" d="M61.28,48.23a.81.81,0,1,1-.51-1A.81.81,0,0,1,61.28,48.23Z"/><path class="cls-10" d="M62.07,45.92a.81.81,0,1,1-1.54-.53.81.81,0,0,1,1-.5A.8.8,0,0,1,62.07,45.92Z"/><rect class="cls-11" x="63.42" y="45.18" width="6.02" height="4.47" transform="translate(18.92 -18.95) rotate(18.88)"/><rect class="cls-12" x="71.29" y="45.98" width="3.27" height="0.77" transform="translate(18.93 -21.1) rotate(18.88)"/><rect class="cls-12" x="70.79" y="47.44" width="3.27" height="0.77" transform="translate(19.38 -20.86) rotate(18.88)"/><rect class="cls-12" x="70.29" y="48.9" width="3.27" height="0.77" transform="translate(19.82 -20.62) rotate(18.88)"/><rect class="cls-12" x="69.79" y="50.36" width="3.27" height="0.77" transform="translate(20.27 -20.38) rotate(18.88)"/><rect class="cls-12" x="69.29" y="51.83" width="3.27" height="0.77" transform="translate(20.71 -20.14) rotate(18.88)"/><path class="cls-4" d="M53.24,45.09l4.59,1.57-.42,1.23-4.59-1.57a.64.64,0,0,1-.4-.82h0A.64.64,0,0,1,53.24,45.09Z"/><path class="cls-4" d="M55,39.94l4.59,1.57-.43,1.23-4.59-1.57a.65.65,0,0,1-.4-.83h0A.65.65,0,0,1,55,39.94Z"/><path class="cls-4" d="M80.38,50l-4.59-1.57.42-1.23,4.59,1.57a.66.66,0,0,1,.41.83h0A.65.65,0,0,1,80.38,50Z"/><path class="cls-4" d="M78.62,55.15,74,53.58l.42-1.23L79,53.92a.65.65,0,0,1,.41.82h0A.66.66,0,0,1,78.62,55.15Z"/><path class="cls-4" d="M47.34,62.92h0l6.88,3.6-7.4-5A2.41,2.41,0,0,0,47.34,62.92Z"/><path class="cls-4" d="M74.07,70.83l-8.77-.52,7.49,1.31h0A2.45,2.45,0,0,0,74.07,70.83Z"/><polygon class="cls-4" points="43.59 33.26 54.72 37.45 54.1 38.67 43.59 33.26"/><polygon class="cls-4" points="80.42 50.56 80.89 53.24 80.39 53.47 79.75 52.05 80.42 50.56"/><polygon class="cls-4" points="33.16 22.86 42.64 31.67 41.89 32.38 33.16 22.86"/><polygon class="cls-4" points="80.18 53.4 81.3 53.15 83.62 65.86 80.18 53.4"/><polygon class="cls-4" points="46.09 66.58 44.34 74.8 43.38 74.48 46.09 66.58"/><polygon class="cls-4" points="61.96 72.48 60.5 80.33 59.4 79.95 61.96 72.48"/><circle class="cls-3" cx="76.79" cy="18.37" r="18.13" transform="translate(12.21 63.79) rotate(-48.57)"/><path class="cls-4" d="M62.28,14.75C66.19,3.31,75.82.23,85.3,3.47a21.63,21.63,0,0,1,5.52,2.77,20.39,20.39,0,0,0-8.16-5C73.19-2,63.55,1.05,59.64,12.5,56,23.11,56.86,28.11,62.32,31.69,59.34,28.23,59.35,23.32,62.28,14.75Z"/><path class="cls-7" d="M81,6.15C71.9,3.05,62.77,5.71,60,14,56.7,23.48,57.4,28.08,71.79,33s17.76,1.71,21-7.81C95.62,17,90,9.25,81,6.15Z"/><ellipse class="cls-13" cx="76.38" cy="19.58" rx="13.82" ry="16.91" transform="translate(33.14 85.51) rotate(-71.12)"/><path class="cls-14" d="M75.12,30.47C61.59,24.43,61.31,19.9,65.31,11a12.57,12.57,0,0,1,4.12-5.13,12.59,12.59,0,0,0-9.05,8.28C57.2,23.38,57.89,27.86,71.9,32.65c7.75,2.65,12.21,2.88,15.2,1C84.23,33.85,80.45,32.85,75.12,30.47Z"/><path class="cls-7" d="M59.64,12.5l.24-.67L57.43,11a.53.53,0,0,0-.69.25L54,18.05a.6.6,0,0,0,.38.81L57.67,20A44.51,44.51,0,0,1,59.64,12.5Z"/><path class="cls-15" d="M58.34,13.41a.59.59,0,1,1-.37-.75A.59.59,0,0,1,58.34,13.41Z"/><path class="cls-5" d="M57.63,17.17a1.14,1.14,0,1,1-.71-1.45A1.14,1.14,0,0,1,57.63,17.17Z"/><path class="cls-15" d="M57.21,17a.7.7,0,0,1-.88.43.67.67,0,0,1-.42-.87.69.69,0,1,1,1.3.44Z"/><path class="cls-7" d="M97,25a.54.54,0,0,0-.39-.62l-2.45-.84c-.07.23-.14.45-.22.68a42.91,42.91,0,0,1-3,7.14l3.33,1.14a.61.61,0,0,0,.8-.41Z"/><path class="cls-15" d="M94.41,25.74a.59.59,0,1,0,.75-.36A.58.58,0,0,0,94.41,25.74Z"/><path class="cls-5" d="M92.67,29.15a1.14,1.14,0,0,0,2.15.74,1.14,1.14,0,1,0-2.15-.74Z"/><path class="cls-15" d="M93.09,29.3a.69.69,0,0,0,.43.87.69.69,0,1,0,.44-1.3A.69.69,0,0,0,93.09,29.3Z"/><path class="cls-16" d="M84.5,13c1-1.27,4.19,1.22,5.47,3.5s1.53,4.32.41,4.83c-1.53.69-1.49-1.93-3.16-4C86.24,16.2,83.5,14.36,84.5,13Z"/></g></g></g></svg>