<svg xmlns="http://www.w3.org/2000/svg" xmlns:xlink="http://www.w3.org/1999/xlink" viewBox="0 0 689.59 555.94"><defs><style>.cls-1,.cls-12,.cls-13,.cls-46{fill:none;}.cls-2{isolation:isolate;}.cls-3{fill:#6972e8;}.cls-4{fill:#c8eefb;}.cls-5{fill:#5084da;}.cls-6{fill:#5193f4;}.cls-26,.cls-28,.cls-7{opacity:0.4;}.cls-18,.cls-22,.cls-26,.cls-28,.cls-31,.cls-32,.cls-35,.cls-36,.cls-37,.cls-39,.cls-43,.cls-45,.cls-7,.cls-9{mix-blend-mode:multiply;}.cls-8{opacity:0.23;}.cls-9{fill:#605aca;}.cls-16,.cls-24,.cls-32,.cls-37,.cls-9{opacity:0.5;}.cls-10{fill:#4ca1ff;}.cls-11{fill:#52d2bc;}.cls-12{stroke:#00ad9f;}.cls-12,.cls-13,.cls-46{stroke-linecap:round;stroke-linejoin:round;stroke-width:1.12px;}.cls-13{stroke:#0b43a4;opacity:0.31;}.cls-14{fill:#4a84d8;}.cls-15{fill:#00ad9f;}.cls-16{mix-blend-mode:screen;}.cls-17{fill:#7ee8d4;}.cls-18{fill:#5a4fd1;opacity:0.37;}.cls-19{fill:#0056ec;}.cls-20{fill:#fff;}.cls-21{clip-path:url(#clip-path);}.cls-22{opacity:0.09;}.cls-23,.cls-24{fill:#94ebff;}.cls-23,.cls-31,.cls-35,.cls-36,.cls-45{opacity:0.3;}.cls-25,.cls-26,.cls-45{fill:#f9714e;}.cls-27,.cls-28{fill:#ffb255;}.cls-29,.cls-36{fill:#ffc2d3;}.cls-30,.cls-32{fill:#2e2c84;}.cls-33{fill:#001f64;}.cls-34,.cls-35{fill:#8fc2ff;}.cls-37{fill:#ffc87c;}.cls-38{fill:#f9acc8;}.cls-39{opacity:0.1;}.cls-40{fill:#4b48b5;}.cls-41{fill:#568edb;}.cls-42{fill:#5e9ce4;}.cls-43{opacity:0.16;}.cls-44{fill:#4e84d9;}.cls-46{stroke:#086356;}</style><clipPath id="clip-path"><circle class="cls-1" cx="344.69" cy="213.25" r="27.67" transform="translate(-49.83 306.19) rotate(-45)"/></clipPath></defs><g class="cls-2"><g id="Capa_2" data-name="Capa 2"><g id="Seccion_Login" data-name="Seccion Login"><path class="cls-3" d="M662.7,203.15c10.39,18.88,25.49,36.69,26.8,58,2.1,34.2-31.24,60-44.87,91.67-16.74,38.89-2.7,84.72-17.52,124.32-10.73,28.7-37.06,51.62-68,59.21-23.19,5.68-47.59,3.12-71.53,3.35-68,.66-135.69,24.17-202.74,13.5-33.1-5.27-64.41-18.72-97.67-23-39.88-5.17-86.35,1.09-114.86-26-39.82-37.87-10.25-107.5-40.14-152.93C22.55,336.55,7,325.1,1.85,308.56c-6.08-19.34,3.76-39.94,16-56.42s27.33-31.66,34-50.83c6-17.41,2.34-36.33-5.05-53.25-11.32-25.91,20.19-85.34,82.71-80.89,28.66,2,41.55-31.15,73-40.35,36-10.53,81.18-2.06,107.7,6.75,26.95,9,60.26,13.67,75.71-9.22C407.65-8,472.66-13,501.85,39.45,512.52,58.62,522,73.53,544.71,72.07,667.7,64.14,647.26,175.09,662.7,203.15Z"/><path class="cls-4" d="M572.9,223.32c7.46,13.54,18.3,26.32,19.23,41.59,1.51,24.54-22.41,43-32.2,65.78-12,27.91-1.93,60.79-12.56,89.2-7.7,20.59-26.6,37-48.8,42.49-16.64,4.08-34.14,2.23-51.32,2.4-48.77.48-97.36,17.34-145.47,9.68C278,470.68,255.56,461,231.7,457.94c-28.62-3.72-62,.77-82.42-18.68-28.57-27.17-7.36-77.13-28.8-109.73-6.91-10.5-18-18.71-21.76-30.58-4.36-13.87,2.7-28.66,11.47-40.48S129.8,235.75,134.55,222c4.31-12.49,1.68-26.07-3.63-38.21-8.12-18.6,14.49-61.24,59.35-58,20.56,1.46,29.82-22.35,52.37-28.95,25.83-7.56,58.25-1.49,77.28,4.84,19.34,6.42,43.24,9.8,54.32-6.62,15.65-23.18,62.3-26.81,83.25,10.84,7.65,13.75,14.46,24.45,30.75,23.4C576.49,123.57,561.83,203.18,572.9,223.32ZM332.35,96.12c0,3.16,0,8.57,13.92,7.69,4.27-.27,7.75-2.56,7.75-5.72s-3.47-5.71-7.75-5.71S332.35,91.08,332.35,96.12ZM195.24,111.44a3,3,0,0,0-.92,1.1,8.19,8.19,0,0,1-4,2.91,7.18,7.18,0,0,0-2.62,1.39,2.83,2.83,0,0,0,.27,4.08,5.46,5.46,0,0,0,3.7.8,23.34,23.34,0,0,0,13.3-5C209.82,112.86,197.94,110,195.24,111.44ZM182,118.71c-1.63-1.07-3.74-.45-5.36.39a1.48,1.48,0,0,0-.82.79c-.21.77.76,1.31,1.55,1.56a6.25,6.25,0,0,0,3.8.35C182.44,121.4,183.67,119.78,182,118.71ZM120.48,219.36c-1.2-3.68-4-5.51-8.37-3.41-2.57,1.25-4.37,3.57-5.9,5.91-2.49,3.76-4.62,8.06-4.1,12.48a11.76,11.76,0,0,0,5,8.16,6.56,6.56,0,0,0,3.86,1.34,7.32,7.32,0,0,0,4.1-1.79,40.77,40.77,0,0,0,7.1-7.8,10.34,10.34,0,0,0,2.45-4.77C125.06,225.71,121.59,222.75,120.48,219.36ZM571.74,332.73a5.88,5.88,0,0,0-2.86,2,5.7,5.7,0,0,0-.73,2.56,52.17,52.17,0,0,0-.31,5.58c0,2,.22,4.3,1.79,5.69,2.11,1.87,5.46,1.22,8.23.44,1.55-.43,3.22-.93,4.22-2.15a6.75,6.75,0,0,0,1.2-3.16c.67-3.73,2.72-9.37.45-11.29S575.7,331.11,571.74,332.73ZM415.84,476.89a6.41,6.41,0,0,0-1.43,1.78,3.9,3.9,0,0,0,2,5.18,8.2,8.2,0,0,0,3.2.39c9.29-.13,19.27-.47,26.69-5.8.9-.65,1.84-1.56,1.68-2.63-.2-1.29-1.8-1.85-3.15-2.11C435.56,471.9,423.3,469.9,415.84,476.89ZM239.6,462.56c-8.07-1.09-20.92-2.63-20.91,3.9,0,2.47,11.39,4.84,13.28,5.29a151.33,151.33,0,0,1,17,5.6c10.57,3.9,19-1.36,10.66-7.26A43,43,0,0,0,239.6,462.56Z"/><path class="cls-5" d="M504.94,308.19s18.76-1.72,36.54-9c.56-.23.9,3.59.9,3.59s2.62-5.11,3.53-5.54c9.62-4.53,18.44-10.86,23.18-19.61,0,0,2.33,53.68-66.68,65.6Z"/><path class="cls-5" d="M527.89,369.43s22.77,12.07,67.31,14.17c0,0-30.3,27.65-99.63,18.13l2.28-31.49Z"/><path class="cls-6" d="M496,338.78s10.28-6.57,27-12.24c.67-.23,2.08,3.71,2.08,3.71s2.28-5.13,3.48-5.49c19.94-6,47.22-9.86,76.6-1.57,0,0-8.9,12.4-27.12,26-.78.58-5.93.12-5.93.12s2.16,2.61,1.46,3.1a174.54,174.54,0,0,1-73.92,29.16Z"/><g class="cls-7"><path class="cls-5" d="M605.15,323.19a257.52,257.52,0,0,1-26.82,14.86c-9.19,4.49-18.65,8.44-28.22,12.05-4.78,1.84-9.66,3.37-14.51,5l-7.35,2.21c-1.23.36-2.45.74-3.68,1.08l-3.73.93a248.66,248.66,0,0,1-30.08,5.92l7.5-1.55L502,363c1.25-.28,2.48-.61,3.72-.91l7.45-1.77,7.37-2c4.92-1.31,9.76-2.93,14.64-4.4,4.81-1.68,9.66-3.25,14.4-5.12,9.58-3.48,19-7.44,28.25-11.69q7-3.18,13.79-6.64T605.15,323.19Z"/><path class="cls-5" d="M542.85,352c1.9-1.78,3.74-3.59,5.58-5.38s3.63-3.65,5.36-5.54,3.38-3.85,5-5.84,3.06-4.11,4.48-6.3a33.69,33.69,0,0,1-3.54,7,52.34,52.34,0,0,1-4.85,6.16A54.51,54.51,0,0,1,542.85,352Z"/><path class="cls-5" d="M515.26,360.25a49.68,49.68,0,0,0,5.75-4.48,45.26,45.26,0,0,0,5-5.2,43.92,43.92,0,0,0,4.14-5.89,63,63,0,0,0,3.3-6.51,27.16,27.16,0,0,1-2.28,7.05,29.57,29.57,0,0,1-4,6.29,30.61,30.61,0,0,1-5.4,5.15A24.63,24.63,0,0,1,515.26,360.25Z"/><path class="cls-5" d="M542.85,352a95.09,95.09,0,0,0,10.55-.05c1.74-.09,3.47-.3,5.2-.55s3.45-.62,5.23-.95a20,20,0,0,1-5,2.09,26.34,26.34,0,0,1-5.35.89,29.61,29.61,0,0,1-5.41-.15A21.36,21.36,0,0,1,542.85,352Z"/><path class="cls-5" d="M515.82,360.29c2.15.26,4.27.46,6.39.68s4.22.37,6.34.46,4.21.09,6.33,0a62.93,62.93,0,0,0,6.35-.64,23.21,23.21,0,0,1-6.25,1.79,36.21,36.21,0,0,1-6.5.29A39.66,39.66,0,0,1,515.82,360.29Z"/></g><g class="cls-8"><path class="cls-9" d="M562,291.58A40,40,0,0,1,553.24,305a57.8,57.8,0,0,1-12.69,9.91L537,316.78c-1.18.64-2.45,1.11-3.67,1.66a65.74,65.74,0,0,1-7.57,2.74c-1.26.46-2.59.7-3.88,1l-3.91.93c-2.64.41-5.29.8-7.93,1.13,2.59-.67,5.2-1.19,7.77-1.84l3.82-1.13a38.63,38.63,0,0,0,3.78-1.21c2.46-1,5-1.75,7.36-2.94,1.18-.57,2.43-1,3.58-1.67l3.47-1.89a68,68,0,0,0,12.63-9.43c.94-.92,1.9-1.83,2.75-2.84.43-.5.89-1,1.31-1.49l1.22-1.56A38.6,38.6,0,0,0,562,291.58Z"/></g><path class="cls-10" d="M580.65,387.39c-3.12.6-6.28,1-9.44,1.34s-6.33.54-9.51.7a164.38,164.38,0,0,1-19.09-.27c-3.17-.27-6.34-.64-9.49-1.14a85.57,85.57,0,0,1-9.38-1.89A64.65,64.65,0,0,1,506.08,379a69.4,69.4,0,0,0,8.8,3.54A84.32,84.32,0,0,0,524,385a133.93,133.93,0,0,0,18.72,2.66c6.29.55,12.61.68,18.94.61S574.32,387.93,580.65,387.39Z"/><path class="cls-10" d="M550.8,398.52a23.84,23.84,0,0,1-12.19-2.41,19,19,0,0,1-5.1-3.78,14.31,14.31,0,0,1-3.14-5.42,23.42,23.42,0,0,0,4,4.59,25.69,25.69,0,0,0,5,3.28,38.6,38.6,0,0,0,5.58,2.22A59.33,59.33,0,0,0,550.8,398.52Z"/><path class="cls-10" d="M534.2,399.5a23.78,23.78,0,0,1-11.38-5,18.52,18.52,0,0,1-4.16-4.79,14.13,14.13,0,0,1-1.89-6,23.35,23.35,0,0,0,2.86,5.34,25.22,25.22,0,0,0,4.12,4.27,38.9,38.9,0,0,0,5,3.38A57.08,57.08,0,0,0,534.2,399.5Z"/><path class="cls-11" d="M352.19,444.89a37,37,0,0,0-28.05-12.58c-7.81.1-15.48,2.7-23.27,2.22a29.74,29.74,0,0,1-27.64-34c.9-6.18,4.13-12.37,9.72-15.14a18.83,18.83,0,0,1,9.95-1.57,28,28,0,0,1,8.94,2.39c6.47,2.87,12.09,7.93,16.58,13.51,4.08,5.08,13.4,12.54,19.7,17.36,3.69,2.82,6.35,4.73,6.35,4.73C348.91,425.94,349.15,439.66,352.19,444.89Z"/><path class="cls-12" d="M283.77,402.76c19.62,5.59,41.3,13.51,56.62,27"/><path class="cls-6" d="M410.23,400a24.93,24.93,0,0,1-2.54,9.56,21.23,21.23,0,0,1-4.25,5.41,33.18,33.18,0,0,1-2.72,2.31,39.76,39.76,0,0,1-11.91,6.24c-6.14,2-12.71,2.32-18.35,5.78a21.82,21.82,0,0,0-6.59,6.36,21.19,21.19,0,0,0-2.6,5.16l0-5.5c.6-6.08,1.22-12.28,3.49-18.1a51.28,51.28,0,0,1,5.89-10.61,73.75,73.75,0,0,1,12.84-14.44c4-3.34,8.5-6.17,13.34-6.9s10,1.07,12.2,5.33C410.42,393.34,410.53,396.73,410.23,400Z"/><path class="cls-13" d="M364.65,430.19a45.61,45.61,0,0,1,16.68-20.14c4.53-3,9.5-5,14.12-7.79s9.08-6.58,11.25-11.66"/><path class="cls-11" d="M357.1,435.19C365.73,426.63,378,422.7,390,421c10-1.44,20.58-1.5,30,2.33,2.95,1.21,5.85,2.87,7.59,5.53s2,6.5-.14,8.86c-1.79,2-4.71,2.48-7.38,2.58-8.82.31-17.45-2.25-26.08-4.06-14.84-3.11-31-3.86-44.5,3.06"/><path class="cls-12" d="M367.86,430.69c17.87-7.54,43.67-5.11,54.92,2.68"/><path class="cls-14" d="M156.55,343.06c-8.07-3.88-11.94-14.21-18.57-16.44-8.22-2.84-10.53,6.34-23.82,4.07C103,328.79,99.62,316.24,81,320.13c-5.69,1.18-9.47,6-7.33,11.77,1.6,5.74,9.51,9.38,14.22,12.31,4.17,2.36,7.87,3.62,10.34,8,0,0,0,.09.08.14,1.66,3.56,1,6.74,4.88,9.35,9.11,6.66,20.45-3.92,30.81-3.61,7.31.22,7.11,7.8,15.89,10s5.85-5.61,24.1,1.46a1.27,1.27,0,0,0,1.65-.73h0a1.25,1.25,0,0,0-.27-1.33C162.57,354.12,168.43,348.77,156.55,343.06Z"/><path class="cls-15" d="M156.55,343.06c-8.07-3.88-11.94-14.21-18.57-16.44-8.22-2.84-10.53,6.34-23.82,4.07C103,328.79,99.62,316.24,81,320.13c-5.69,1.18-9.47,6-7.33,11.77,1.6,5.74,9.51,9.38,14.22,12.31,4.17,2.36,7.87,3.62,10.34,8,0,0,0,.09.08.14,1.66,3.56,1,6.74,4.88,9.35,9.11,6.66,20.45-3.92,30.81-3.61,7.31.22,7.11,7.8,15.89,10s5.85-5.61,24.1,1.46a1.27,1.27,0,0,0,1.65-.73h0a1.25,1.25,0,0,0-.27-1.33C162.57,354.12,168.43,348.77,156.55,343.06Z"/><g class="cls-16"><path class="cls-10" d="M166.88,360.49c-5.76-2.84-9.36-8.47-14.56-12.09a15.31,15.31,0,0,0-8.4-3.07c-3.3-.05-6.61,1.6-9.87.44-2.55-.91-4.42-3-6.81-4.24a7.61,7.61,0,0,0-3.89-.84c-1.75.1-3.43.69-5.18.77-5.89.28-10.5-4.64-14.88-7.85a33.45,33.45,0,0,0-20.16-6.43c-.42,0-.23,1.1.24,1.09a32.81,32.81,0,0,1,18.48,5.43c4.58,3.06,8.74,7.9,14.45,8.75a12.74,12.74,0,0,0,4.35-.2,11.07,11.07,0,0,1,5-.25c2.52.69,4.41,2.7,6.61,4a8.52,8.52,0,0,0,4,1.29,22.66,22.66,0,0,0,4.86-.58,13.41,13.41,0,0,1,5.05,0,14.78,14.78,0,0,1,4.25,1.65c6.17,3.48,9.92,10.05,16.32,13.2.52.25.5-.84.12-1Z"/></g><path class="cls-17" d="M235.14,397.34c-26.56,2.81-30.81,5.1-37.18,2.35-8.11-3.51-16.64-2.64-24.82-6s-17.06-5.92-25.79-4.5c-2.75.45-5.82,1.57-6.2,4.8a5.3,5.3,0,0,0,1,3.68c1.92,2.68,5.06,3.58,8.06,4.41l10,2.77c3.27.9,3.06,5.71-.3,6.19h-.08a24.34,24.34,0,0,1-8.43-.79c-6-1.34-12.07-3-18.25-3-7.47,0-15.39,2.69-19.09,9.66a12.86,12.86,0,0,0-1.34,8.1c1.31,7.7,8.52,10.28,14.9,9.7,4.5-.41,8.75-2.14,13-3.68,10.37-3.75,19.24.39,30.26.67C201.36,432.54,235.14,397.34,235.14,397.34Z"/><path class="cls-12" d="M121.05,421.64c18.91-2.16,38-4.34,56.1-10.09,5.32-1.69,12.18-2.16,27.2-13.24"/><path class="cls-17" d="M151.68,312a10.78,10.78,0,0,0,2,1.22c3.24,1.6,7,1.82,9.54,4.74,1.73,1.83,2.66,4.29,4,6.47a12.4,12.4,0,0,0,.88,1.38c4,5.47,7.92,6.11,12.13,6,1.72,0,3.5-.2,5.34-.2a17.78,17.78,0,0,1,9,2.13,24.68,24.68,0,0,1,6.4,5.2,1.33,1.33,0,0,0,1.7.11,1.45,1.45,0,0,0,.66-1.47,20.34,20.34,0,0,0-6-10.86c-7.44-7-18.42-7.6-19.09-22.13-.14-3.11.52-5.32,0-7.54a7.67,7.67,0,0,0-1.9-3.48c-2.25-2.43-5.48-3.5-8.36-5.44-7.81-5.56-4.09-14.67-4.78-23.33-.46-7.08-6.82-11.68-12-15.69-6.51-4.78-6.49-13.41-10.88-19.82s-15.28-9-21.08-.38c-6.16,8.61-2.77,19.37-1,28.1a20,20,0,0,0,2.33,6.16c3.24,5.67,8.81,9.7,13.63,14.5a34.67,34.67,0,0,1,7.16,10.06,29.9,29.9,0,0,1,2.23,7c.1.58.21,1.16.33,1.73C145,302.56,146.34,308,151.68,312Z"/><g class="cls-16"><path class="cls-10" d="M124,229c.17,4.51.37,9.1,1.68,13.44a20.38,20.38,0,0,0,2.72,5.8,24,24,0,0,0,3.84,4.16c2.78,2.48,6,4.62,8.26,7.58a13.92,13.92,0,0,1,2.5,5.3c.48,1.94.92,4,2.31,5.54s3.45,2.2,5,3.52a14.13,14.13,0,0,1,3.27,4.17c1.74,3.17,2.72,6.7,4.32,9.93a18.75,18.75,0,0,0,2.86,4.34c1.44,1.57,3.48,2.6,4.52,4.51s1.11,4.18,1.32,6.27a22.84,22.84,0,0,0,1.37,6.11c3.4,8.65,11.78,13.59,19.75,17.44l3.25,1.54c.52.25.5-.84.12-1-8.11-3.82-17.08-8-21.56-16.25a18.46,18.46,0,0,1-2-6c-.33-2.07-.34-4.2-.83-6.25a9.07,9.07,0,0,0-3.09-5,18.49,18.49,0,0,1-4-4.18c-3.75-5.82-4.29-13.84-10.67-17.72a23.64,23.64,0,0,1-2.7-1.71,6.05,6.05,0,0,1-1.85-2.73c-.69-1.9-.91-3.93-1.78-5.78-1.54-3.29-4.33-5.7-7.08-8-3-2.48-6-4.94-7.87-8.46-2.07-4-2.56-8.63-2.81-13.06-.06-1.13-.11-2.25-.15-3.37,0-.57-.72-.91-.69-.16Z"/></g><path class="cls-18" d="M185.5,331.6a17.78,17.78,0,0,1,9,2.13c.29-4.46,1.79-5.39,2.79-7-7.44-7-18.42-7.6-19.09-22.13-.14-3.11.52-5.32,0-7.54-2.21,4.66-6.2,5.62-5.88,10.38s6.54,9.44,7.67,15.64C180.94,328.17,182.83,329.47,185.5,331.6Z"/><path class="cls-5" d="M257.48,404.84c-5-2-11.72-2.8-14.93,1.53-2.7,3.63-1.3,8.77.56,12.88,1.57,3.48,3.56,7,6.88,8.9a19.45,19.45,0,0,0,7.5,2,179.5,179.5,0,0,0,21.74,1.26,45.62,45.62,0,0,1,25.59,8.67C295.88,423.44,274.37,411.51,257.48,404.84Z"/><path class="cls-13" d="M248.68,415.64c6.38.27,12.83.72,19,2.53S298,431.09,301.79,435.8"/><path class="cls-17" d="M502.65,281.25a9.93,9.93,0,0,0-.21,2.22c0,3.46,1.4,6.74,0,10.19-.83,2.25-2.54,4.1-3.86,6.13a11.48,11.48,0,0,0-.81,1.35c-3,5.75-1.86,9.38,0,12.94.77,1.46,1.67,2.92,2.45,4.49a17.16,17.16,0,0,1,2,8.63,23.47,23.47,0,0,1-1.74,7.7,1.28,1.28,0,0,0,.63,1.5,1.4,1.4,0,0,0,1.54-.06,19.44,19.44,0,0,0,6.77-9.74c2.86-9.37-1.33-19,10.83-25.77,2.61-1.44,4.78-1.82,6.47-3.19a7.42,7.42,0,0,0,2.18-3.11c1.12-3,.66-6.19,1.09-9.48,1.45-9.05,10.83-9.74,18-14,5.86-3.41,7.1-10.82,8.32-17,1.33-7.6,8.73-11.26,12.36-17.75s1.21-16.92-8.65-18.22c-10-1.61-17.78,5.86-24.51,11.1a19.74,19.74,0,0,0-4.28,4.61c-3.47,5.2-4.56,11.69-6.62,17.85A33.14,33.14,0,0,1,519,262.06a28.27,28.27,0,0,1-5.09,4.91c-.45.33-.9.68-1.34,1C507.87,271.53,503.82,275,502.65,281.25Z"/><g class="cls-16"><path class="cls-10" d="M561.82,222.07a52.33,52.33,0,0,0-10.25,6.68,19.49,19.49,0,0,0-3.74,4.41,20.81,20.81,0,0,0-2.16,5.18c-1,3.64-1.49,7.53-3.19,11a13.81,13.81,0,0,1-3.53,4.4c-1.42,1.21-3,2.42-3.64,4.21-.75,1.95-.41,4.12-1,6.12a14.11,14.11,0,0,1-2.21,4.42c-2,2.78-4.54,5.1-6.6,7.82a17.67,17.67,0,0,0-2.47,4.27c-.73,1.92-.75,4.11-2,5.83a14.65,14.65,0,0,1-4.4,3.57,23.82,23.82,0,0,0-4.69,3.61c-6.22,6.51-6.94,16-6.86,24.54,0,1.24,0,2.49.06,3.73,0,.57.71.9.69.16-.19-8.83-.39-18.67,5.32-26a18.5,18.5,0,0,1,4.38-4,40.35,40.35,0,0,0,4.73-3.24,8.65,8.65,0,0,0,2.66-4.89,15.79,15.79,0,0,1,1.94-5c1.79-2.88,4.3-5.21,6.46-7.81a21.16,21.16,0,0,0,2.73-4.05,13.38,13.38,0,0,0,1.31-5,12,12,0,0,1,.47-3.26,6.69,6.69,0,0,1,1.7-2.43,38.31,38.31,0,0,0,4-3.83c2.27-2.92,3-6.66,3.87-10.18.88-3.78,1.93-7.42,4.49-10.44s6.14-5.3,9.63-7.28c.87-.49,1.74-1,2.62-1.44.37-.2,0-1.27-.4-1Z"/></g><path class="cls-14" d="M473.64,419.83c7.64,4.31,10.76,14.67,17.11,17.27,7.85,3.3,10.7-5.53,23.55-2.45,10.79,2.58,13.29,15.06,31.78,12.46,5.64-.79,9.65-5.25,7.93-11-1.2-5.72-8.7-9.78-13.12-12.95-3.93-2.57-7.46-4.05-9.6-8.5l-.06-.14c-1.4-3.59-.55-6.66-4.18-9.45-8.48-7.1-20.25,2.51-30.37,1.54-7.13-.68-6.44-8.09-14.89-10.8s-6.08,5.11-23.47-3a1.26,1.26,0,0,0-1.66.61h0a1.26,1.26,0,0,0,.17,1.32C468.47,408.62,462.39,413.48,473.64,419.83Z"/><path class="cls-15" d="M473.64,419.83c7.64,4.31,10.76,14.67,17.11,17.27,7.85,3.3,10.7-5.53,23.55-2.45,10.79,2.58,13.29,15.06,31.78,12.46,5.64-.79,9.65-5.25,7.93-11-1.2-5.72-8.7-9.78-13.12-12.95-3.93-2.57-7.46-4.05-9.6-8.5l-.06-.14c-1.4-3.59-.55-6.66-4.18-9.45-8.48-7.1-20.25,2.51-30.37,1.54-7.13-.68-6.44-8.09-14.89-10.8s-6.08,5.11-23.47-3a1.26,1.26,0,0,0-1.66.61h0a1.26,1.26,0,0,0,.17,1.32C468.47,408.62,462.39,413.48,473.64,419.83Z"/><g class="cls-16"><path class="cls-10" d="M464.69,402.14c5.45,3.14,8.62,8.88,13.46,12.75a14.91,14.91,0,0,0,8,3.54c3.23.25,6.65-1.18,9.75.23,2.36,1.08,4,3.19,6.25,4.52a7.29,7.29,0,0,0,3.83,1.1c1.74,0,3.46-.47,5.2-.41,5.75.21,9.87,5.22,13.95,8.63a32.63,32.63,0,0,0,19.22,7.58c.5,0,.36-1.07-.06-1.09a32.2,32.2,0,0,1-17.64-6.38c-4.3-3.25-8-8.15-13.4-9.53a11.89,11.89,0,0,0-4.45-.17,11.68,11.68,0,0,1-5,0c-2.49-.79-4.25-3-6.35-4.4a8.32,8.32,0,0,0-3.6-1.47,21.05,21.05,0,0,0-5,.22,13,13,0,0,1-4.74-.23,14.21,14.21,0,0,1-4.07-1.83c-5.92-3.78-9.17-10.54-15.28-14.06-.49-.29-.48.81-.12,1Z"/></g><path class="cls-5" d="M200.5,398.89s-33.34-7.29-59-4.55c-.81.09.17-5,.17-5s-5.28,5.61-6.61,5.82c-14.1,2.26-27.84,7.11-37.21,16.63,0,0,17.06-70.07,110.46-59.65Z"/><path class="cls-6" d="M219.88,402.65s-14.94-6.71-33.58-21.27c-.75-.58,2.63-5.05,2.63-5.05s-7.42,1.21-8.71.12c-21.37-18-45.82-45.72-58.13-84.8,0,0,20.46.87,49.1,11.33,1.22.44,4.5,6.55,4.5,6.55s1.33-4.34,2.41-3.9a234.2,234.2,0,0,1,87.11,61.49Z"/><g class="cls-7"><path class="cls-5" d="M122.09,292.6a344.18,344.18,0,0,1,36.41,19.17c11.8,7,23.19,14.72,34.29,22.8,5.57,4,10.89,8.37,16.3,12.59L217,353.8c1.31,1.11,2.64,2.19,3.93,3.33l3.78,3.49A335.62,335.62,0,0,1,253.46,390l-7.26-7.29-3.61-3.65c-1.22-1.19-2.5-2.34-3.75-3.51l-7.46-7-7.72-6.77c-5.09-4.57-10.47-8.81-15.71-13.19-5.43-4.17-10.76-8.45-16.34-12.41-11-8.18-22.32-15.83-33.91-23.1q-8.69-5.47-17.59-10.59T122.09,292.6Z"/><path class="cls-5" d="M200.23,341.34c-3.39-.82-6.78-1.56-10.15-2.3s-6.76-1.39-10.16-1.94-6.81-1-10.23-1.31-6.87-.41-10.37-.4a45.65,45.65,0,0,1,10.44-1.16,69.39,69.39,0,0,1,10.48.91A73.68,73.68,0,0,1,200.23,341.34Z"/><path class="cls-5" d="M167.44,318.89c-2.42-.15-4.82-.23-7.22-.33s-4.78-.11-7.17-.06-4.76.18-7.14.36-4.73.57-7.12,1a31.16,31.16,0,0,1,7-2.07,46.57,46.57,0,0,1,7.26-.68A50.7,50.7,0,0,1,167.44,318.89Z"/><path class="cls-5" d="M229.82,366.21a67.43,67.43,0,0,0-9.26-3.16,60.52,60.52,0,0,0-9.51-1.76,56.5,56.5,0,0,0-9.65-.3,85.19,85.19,0,0,0-9.72,1.07,36.29,36.29,0,0,1,9.58-2.62,39.46,39.46,0,0,1,10-.13,41.13,41.13,0,0,1,9.75,2.26A33.53,33.53,0,0,1,229.82,366.21Z"/><path class="cls-5" d="M200.23,341.34a128.29,128.29,0,0,0-7.82-11.8c-1.39-1.89-2.89-3.68-4.45-5.44s-3.23-3.41-4.9-5.17a26.78,26.78,0,0,1,6,4.07,34.73,34.73,0,0,1,4.94,5.34,38.84,38.84,0,0,1,3.8,6.18A28.17,28.17,0,0,1,200.23,341.34Z"/><path class="cls-5" d="M229.45,365.55c-1.29-2.59-2.62-5.13-3.93-7.66s-2.7-5-4.15-7.46-3-4.8-4.62-7.13a83.81,83.81,0,0,0-5.38-6.66,31.39,31.39,0,0,1,6.6,5.69,49.43,49.43,0,0,1,5.11,7.09A53.33,53.33,0,0,1,229.45,365.55Z"/></g><g class="cls-16"><path class="cls-10" d="M112.23,396.49c4.25-5.81,10.09-10.32,16.28-14a78.51,78.51,0,0,1,20.06-8l5.3-1.12c1.77-.39,3.58-.52,5.36-.77a88.3,88.3,0,0,1,10.78-.71c1.8-.11,3.59.07,5.39.13l5.38.26c3.56.46,7.12.95,10.65,1.51-3.59-.11-7.15-.41-10.71-.53l-5.34,0c-1.77,0-3.55-.06-5.32.14-3.54.34-7.09.4-10.58,1.05-1.75.29-3.52.41-5.25.82l-5.18,1.14a90.34,90.34,0,0,0-19.79,7.44,47.65,47.65,0,0,0-4.61,2.63c-.75.47-1.52.92-2.25,1.42l-2.16,1.55A51.94,51.94,0,0,0,112.23,396.49Z"/></g><g class="cls-16"><path class="cls-10" d="M169.89,372.76c-1.95,3.1-3.84,6-5.42,9.13a42.6,42.6,0,0,0-2.09,4.74,43.56,43.56,0,0,0-1.43,5.12c-.86-3.61.08-7.5,1.75-10.77a24.14,24.14,0,0,1,3.09-4.57A18.29,18.29,0,0,1,169.89,372.76Z"/></g><rect class="cls-19" x="317.09" y="395.26" width="55.21" height="37.97"/><rect class="cls-9" x="317.09" y="395.26" width="55.21" height="13.76"/><path class="cls-19" d="M400.72,432.63H288.66a6.41,6.41,0,0,0,0,12.82H400.72a6.41,6.41,0,0,0,6.41-6.41h0A6.41,6.41,0,0,0,400.72,432.63Z"/><path class="cls-9" d="M407.13,439.05a6.41,6.41,0,0,1-6.41,6.4H288.66a6.41,6.41,0,0,1-6.41-6.4,5.75,5.75,0,0,1,.2-1.56,6.39,6.39,0,0,0,6.21,4.86H400.72a6.39,6.39,0,0,0,6.21-4.86A5.75,5.75,0,0,1,407.13,439.05Z"/><rect class="cls-20" x="168.03" y="164.56" width="353.33" height="236" rx="3.93"/><path class="cls-19" d="M517.43,167.36a1.13,1.13,0,0,1,1.12,1.13V396.63a1.12,1.12,0,0,1-1.12,1.12H172a1.12,1.12,0,0,1-1.12-1.12V168.49a1.13,1.13,0,0,1,1.12-1.13H517.43m0-5.61H172a6.73,6.73,0,0,0-6.73,6.74V396.63a6.73,6.73,0,0,0,6.73,6.74H517.43a6.73,6.73,0,0,0,6.73-6.74V168.49a6.73,6.73,0,0,0-6.73-6.74Z"/><path class="cls-19" d="M524.16,396.17V373.86H165.22v22.31a7.59,7.59,0,0,0,7.6,7.59H516.56A7.59,7.59,0,0,0,524.16,396.17Z"/><circle class="cls-4" cx="344.69" cy="213.25" r="27.67" transform="translate(-49.83 306.19) rotate(-45)"/><g class="cls-21"><path class="cls-5" d="M355.38,206.93a10.69,10.69,0,1,1-10.69-10.69A10.69,10.69,0,0,1,355.38,206.93Zm5.45,44.77V233A12.85,12.85,0,0,0,348,220.17h-6.56A12.85,12.85,0,0,0,328.56,233V251.7a3.56,3.56,0,0,0,3.56,3.57h25.14A3.57,3.57,0,0,0,360.83,251.7Z"/></g><path class="cls-4" d="M410.89,272.39H278.49a10.94,10.94,0,0,1-10.94-10.95h0a11,11,0,0,1,10.94-10.95h132.4a11,11,0,0,1,10.95,10.95h0A11,11,0,0,1,410.89,272.39Z"/><path class="cls-5" d="M406.29,264.3H283.09a2.86,2.86,0,0,1-2.86-2.86h0a2.86,2.86,0,0,1,2.86-2.86h123.2a2.86,2.86,0,0,1,2.86,2.86h0A2.86,2.86,0,0,1,406.29,264.3Z"/><path class="cls-4" d="M411,311.77H278.6a11,11,0,0,1-11-10.95h0a11,11,0,0,1,11-10.95H411a11,11,0,0,1,10.95,10.95h0A11,11,0,0,1,411,311.77Z"/><path class="cls-5" d="M282,303.87h0a2.86,2.86,0,0,1-2.86-2.86h0a2.86,2.86,0,0,1,2.86-2.86h0a2.86,2.86,0,0,1,2.86,2.86h0A2.86,2.86,0,0,1,282,303.87ZM293.35,301h0a2.86,2.86,0,0,0-2.86-2.86h0a2.86,2.86,0,0,0-2.86,2.86h0a2.86,2.86,0,0,0,2.86,2.86h0A2.86,2.86,0,0,0,293.35,301Zm8.5,0h0a2.86,2.86,0,0,0-2.86-2.86h0a2.86,2.86,0,0,0-2.86,2.86h0a2.86,2.86,0,0,0,2.86,2.86h0A2.86,2.86,0,0,0,301.85,301Zm8.5,0h0a2.86,2.86,0,0,0-2.86-2.86h0a2.86,2.86,0,0,0-2.86,2.86h0a2.86,2.86,0,0,0,2.86,2.86h0A2.86,2.86,0,0,0,310.35,301Zm8.5,0h0a2.86,2.86,0,0,0-2.86-2.86h0a2.86,2.86,0,0,0-2.86,2.86h0a2.86,2.86,0,0,0,2.86,2.86h0A2.86,2.86,0,0,0,318.85,301Zm8.5,0h0a2.86,2.86,0,0,0-2.86-2.86h0a2.86,2.86,0,0,0-2.86,2.86h0a2.86,2.86,0,0,0,2.86,2.86h0A2.86,2.86,0,0,0,327.35,301Zm8.5,0h0a2.86,2.86,0,0,0-2.86-2.86h0a2.86,2.86,0,0,0-2.86,2.86h0a2.86,2.86,0,0,0,2.86,2.86h0A2.86,2.86,0,0,0,335.85,301Z"/><path class="cls-5" d="M363.49,353h-37.6a11,11,0,0,1-10.95-10.95h0a11,11,0,0,1,10.95-10.95h37.6a11,11,0,0,1,10.95,10.95h0A11,11,0,0,1,363.49,353Z"/><path class="cls-22" d="M483.5,403.16V390.65a7.46,7.46,0,0,0-7.46-7.46h-.65v-11.6a30.92,30.92,0,0,0-61.83,0v11.6h-.65a7.46,7.46,0,0,0-7.46,7.46v12.51Zm-59.73-31.57a20.7,20.7,0,1,1,41.4,0v11.6h-41.4Z"/><path class="cls-22" d="M498.11,285.88a19.78,19.78,0,0,0-11.2-4.43c0-.41,0-.82,0-1.34,2.29-.37,4.24-2.37,5.38-5.07,3.09-3,5.19-6.65,4.17-11.29a.9.9,0,0,1,.11-.68c-1.32-2.38-3.77-3.52-6.49-6-9.12-8.27-20,3.22-15.86,8a8.55,8.55,0,0,1,1.15,2.61l0,.08a4,4,0,0,0,.67,3.12,13,13,0,0,1,.08,1.4.52.52,0,0,1,.06.13,5.54,5.54,0,0,0,.76,1.94,7.27,7.27,0,0,0,4.66,5.47,5.9,5.9,0,0,0,.67.19,3.53,3.53,0,0,1,.1,1.49,18,18,0,0,0-7.31,2.45c-17.44,8.43-34.69,35.61-32.79,41.6s6.72,13,10,17.69l.51-.09c.26.91.52,1.81.79,2.71a2.45,2.45,0,0,0,.63,1.24,2.49,2.49,0,0,0,1.79.37,3.35,3.35,0,0,0,2.18-.62,2.3,2.3,0,0,0,.64-1.16,4.91,4.91,0,0,0-.58-3.5l.38-.06S451,330.84,451.3,324c.1-2.51,6-8.42,10.75-12.82-.11,1.53-.17,3.08-.17,4.66l-2.29,54.7s2,.39,5.14.9l3.07,32.66h12.37l.29-30.77.49,0,.43,0,1.83.12.62,0,.67,0,1.21,30.51H497.9L500.4,373h0c.51-.08,1-.17,1.48-.27l.63-.14c.41-.09.8-.18,1.19-.29l.62-.17c.39-.11.76-.23,1.13-.36l.51-.18a14.31,14.31,0,0,0,1.48-.63l-.25-59.16c0-1.28,0-2.52-.11-3.73a2.45,2.45,0,0,0,0-.27c-.07-1.13-.17-2.22-.31-3.29,0-.11,0-.21,0-.32s0-.19,0-.29c2.42.48,5.55,1.06,9.66,1.75a17.5,17.5,0,0,0,7.74-.48v-12C513.9,294.36,502.47,288.52,498.11,285.88Z"/><circle class="cls-23" cx="331.57" cy="299.91" r="19.02"/><path class="cls-24" d="M341.89,299.91a10.32,10.32,0,1,1-10.32-10.32A10.32,10.32,0,0,1,341.89,299.91Z"/><path class="cls-25" d="M436.76,340.68a31,31,0,0,0-30.92,30.91v29.74h61.84V371.59A31,31,0,0,0,436.76,340.68Zm-20.7,50.43V371.59a20.7,20.7,0,0,1,41.4,0v19.52Z"/><path class="cls-26" d="M436.76,346.79a24.71,24.71,0,0,0-24.69,24.68v23.74h49.38V371.47A24.71,24.71,0,0,0,436.76,346.79Zm20.7,44.32h-41.4V371.59a20.7,20.7,0,0,1,41.4,0Z"/><rect class="cls-27" x="397.74" y="383.19" width="78.04" height="62.26" rx="7.6"/><path class="cls-25" d="M448.11,410a11.35,11.35,0,1,0-16.57,10.06v12.27H442V420.07A11.33,11.33,0,0,0,448.11,410Z"/><path class="cls-28" d="M468.33,383.19H449.58A116.83,116.83,0,0,1,431,418.49c-7.54,9.8-19.42,22.23-32.85,22a7.46,7.46,0,0,0,7,5h63.14a7.45,7.45,0,0,0,7.45-7.45V390.65A7.45,7.45,0,0,0,468.33,383.19Z"/><path class="cls-29" d="M444.31,340.69l1.48,5.14a1.86,1.86,0,0,0,2.43,1.61,3.35,3.35,0,0,0,2.18-.62,2.3,2.3,0,0,0,.64-1.16,5.07,5.07,0,0,0-.71-3.74,15.18,15.18,0,0,0-2.54-2.95"/><path class="cls-29" d="M536.72,281.5a41.25,41.25,0,0,1,2.44-7,3.4,3.4,0,0,1,.38,2.48,5.62,5.62,0,0,1,2.74-2.88.61.61,0,0,1,.47-.08c.16.07.23.27.28.45a7.91,7.91,0,0,1-4.72,9.27"/><path class="cls-5" d="M486.23,441.3c4.36,1.07,8,2.35,10,4.15H479.42l.32-3.91Z"/><path class="cls-5" d="M465.64,441.3c-4.37,1.07-8,2.35-10,4.15h16.83l-.32-3.91Z"/><path class="cls-30" d="M495.08,343.2,487.14,442a26.89,26.89,0,0,1-3.73.68,15.84,15.84,0,0,1-2.18-.31c-.92-.18-1.72-.37-1.72-.37l-3-74.68h-3.72L472.09,442a16.12,16.12,0,0,1-4,.59,21.71,21.71,0,0,1-4.39-.59l-9.53-101.31Z"/><g class="cls-31"><path class="cls-32" d="M479.86,342.26l-14-.86c-.17,18.19,2.57,83.21,2.85,101.16a17.2,17.2,0,0,0,3.36-.57l.72-74.68h3.72l3,74.68s.8.19,1.72.37l.82.14C482.05,422.17,480.21,350.62,479.86,342.26Z"/></g><path class="cls-33" d="M468.39,272.25a.52.52,0,0,1,.06.13c.6,3.27,3.7,4.94,7.14,5.89,2.8.77,3.45,1.11,5.7-.51,4.67-3.37,8.82-7.84,7.47-14a.9.9,0,0,1,.11-.68c-1.32-2.38-3.77-3.52-6.49-6-9.13-8.27-20,3.22-15.87,8C467.18,265.81,468.4,269.15,468.39,272.25Z"/><path class="cls-34" d="M499.52,311.8c0-18.78-7.77-30.46-22.66-30.46s-22.69,15.7-22.69,34.48l-2.29,54.7s34.7,6.88,47.89.44Z"/><path class="cls-35" d="M499.52,311.8a49.41,49.41,0,0,0-1.81-14c-1.32,20.43-3.11,74.84-33.53,74.63,11.31,1.41,27.5,2.47,35.59-1.48Z"/><path class="cls-29" d="M484.51,270c-.56-3.69-3.85-7.4-7.87-5.48a8.13,8.13,0,0,1-7.36.25c-.06.71-.15,1.75-.23,2.84-.44-.82-1.19-.94-1.41.08s.06,3.12,1.23,3.5v.55c.06,2.76,1.18,7.15,5.67,8.2a4.54,4.54,0,0,1-.13,2.6c.25.86,3.74,1.42,4.89.4a20.1,20.1,0,0,1-.09-2.87c2.65-.43,4.86-3,5.86-6.4C489.07,271.47,486.21,267.38,484.51,270Z"/><path class="cls-36" d="M484.51,270a8.17,8.17,0,0,0-1.82-4c.11,6.42-2.62,12.39-8.83,13.77a6.75,6.75,0,0,0,.68.19,4.54,4.54,0,0,1-.13,2.6c.25.86,3.74,1.42,4.89.4a20.1,20.1,0,0,1-.09-2.87c2.65-.43,4.86-3,5.86-6.4C489.07,271.47,486.21,267.38,484.51,270Z"/><path class="cls-34" d="M467.33,283.92c-17.45,8.43-34.69,35.61-32.79,41.6s6.72,13,10,17.69l6.34-1.11s-7.52-11.26-7.25-18.12c.17-4.24,16.81-18.17,16.81-18.17Z"/><path class="cls-34" d="M488.83,284.88c2.73,2,25.53,15.62,38.06,3.56,9.06-8.72,10-10.4,10-10.4l3.1,5.5s-14.16,25-31.3,22.11-17.58-3.78-17.58-3.78Z"/><path class="cls-22" d="M207,391.87a27.44,27.44,0,0,0-15.58,11.77h46.31a27.37,27.37,0,0,0-15.58-11.77V278.41H207v1.85H190.86v13.66H207v3.25H190.86v13.66H207Z"/><rect class="cls-27" x="200.77" y="280.26" width="19.4" height="13.66" transform="translate(420.95 574.18) rotate(180)"/><rect class="cls-27" x="200.77" y="297.17" width="19.4" height="13.66" transform="translate(420.95 607.99) rotate(180)"/><rect class="cls-37" x="215.23" y="280.26" width="4.95" height="13.66" transform="translate(435.41 574.18) rotate(180)"/><rect class="cls-37" x="215.23" y="297.17" width="4.95" height="13.66" transform="translate(435.41 607.99) rotate(180)"/><rect class="cls-27" x="216.95" y="278.41" width="15.15" height="118.7" transform="translate(449.05 675.52) rotate(180)"/><rect class="cls-37" x="223.36" y="282.5" width="2.32" height="118.7" rx="0.92" transform="translate(449.05 683.7) rotate(180)"/><path class="cls-27" d="M197.19,418.12a27.33,27.33,0,1,1,27.33,27.33A27.36,27.36,0,0,1,197.19,418.12Zm14.1,0a13.24,13.24,0,1,0,13.23-13.24A13.25,13.25,0,0,0,211.29,418.12Z"/><path class="cls-37" d="M210,418.12a14.53,14.53,0,1,0,14.52-14.52A14.53,14.53,0,0,0,210,418.12Zm1.29,0a13.24,13.24,0,1,1,13.23,13.24A13.25,13.25,0,0,1,211.29,418.12Z"/><path class="cls-22" d="M323.91,303.87c-4.79,4.25-22.07,22.35-25.24,12.5-2.51-7.8-7.77-18.53-10.85-22.13a14.7,14.7,0,0,0-7.47-4.58v-1.25c3,0,7.68-.6,7.68-11.4a19.38,19.38,0,0,0-.87-6.82,3.32,3.32,0,0,0,.2-3.72c-.84-1.38-3-2.58-4.5-3.23-3.47-1.53-8-2.25-11.32-.09a14.51,14.51,0,0,0-4.18-3.66,10.18,10.18,0,0,0-4.57-1.47c-3.19-.06-6,2.39-7.44,5.22a11.68,11.68,0,0,0-1.27,7.52,8.42,8.42,0,0,0,4.47,6,4,4,0,0,0,2.21.43,4.58,4.58,0,0,0,2.54-1.54c1.71-1.77,2-3.89,3.25-5.81a2.15,2.15,0,0,1,.7-.65,14,14,0,0,0-.59,3.85,23.06,23.06,0,0,0,3,10.65,6.34,6.34,0,0,0,1.79,2.33c.78.54,2.8,1.07,3.62.54l-.35,2.64a19.3,19.3,0,0,0-7,2.05h0c-13,3-22.79,34.87-40.16,32.76v0c-2.11-.59-4.43-.76-4.55,1.31-.24,4.05,2.28,4.57,4.55,4.24v.08a33.15,33.15,0,0,0,25.38-11.46c-4.67,26.34-2.8,60.83-2.8,60.83,1.25.18,2.5.35,3.74.5L256,403.69h11.06l0-23c2.23.09,4.45.14,6.65.12l.25,22.9h12.83l2.48-24c2.27-.32,4.53-.71,6.75-1.17-.46-14.49-.52-33.43-1.48-49.83a5.33,5.33,0,0,0,2.38,1.37c1.51.37,8,7.86,12.67,2.16s14.64-17.69,18.27-23.84C327.1,306.35,325,305.75,323.91,303.87Z"/><polygon class="cls-38" points="281.81 285.59 281.08 291.18 286.96 291.83 286.96 285.93 281.81 285.59"/><path class="cls-39" d="M236.5,326.47s-7.78-3.83-8,0c-.43,7.27,8,3.17,8,3.17Z"/><path class="cls-29" d="M237.61,325.37s-7.79-3.83-8,0c-.43,7.27,8,3.17,8,3.17Z"/><path class="cls-29" d="M276.5,277c0,5.08,5.24,11.4,10.33,11.4,3,0,7.81-.44,7.81-11.4,0-11.51-3.86-9.2-8.94-9.2A9.2,9.2,0,0,0,276.5,277Z"/><path class="cls-36" d="M284.23,281.29a40.34,40.34,0,0,1,2.14-13.49h-.67a9.2,9.2,0,0,0-9.2,9.2c0,5,5.05,11.15,10,11.38A10.24,10.24,0,0,1,284.23,281.29Z"/><path class="cls-27" d="M292.7,270.86c-.82.12-1.68-.27-2.45,0-1.22.49-1.3,2.36-2.43,3-1.41.86-3.53-.62-4.76.47-.72.65-.64,1.79-.56,2.77a20.72,20.72,0,0,1-.84,7.63c-.18.57.58,1.6.13,2-.75.65-2.92.08-3.73-.49a6.33,6.33,0,0,1-1.79-2.35,23.46,23.46,0,0,1-3-10.76c0-3.76,1.57-7.65,4.61-9.83,3.34-2.39,8-1.67,11.59-.07,1.46.65,3.66,1.86,4.5,3.26S294.66,270.56,292.7,270.86Z"/><path class="cls-37" d="M291.73,264.51c-1.2,1.07-2.41,3-3.31,3.64a13.93,13.93,0,0,1-4.17,1.48c-6.54,2-7,12.05-4.14,17.4a2.23,2.23,0,0,0,1.68-.23c.45-.39-.31-1.42-.13-2a20.72,20.72,0,0,0,.84-7.63c-.08-1-.16-2.12.56-2.77,1.23-1.09,3.35.39,4.76-.47,1.13-.68,1.21-2.55,2.43-3,.77-.31,1.63.08,2.45,0,2-.3,2.09-2.93,1.27-4.3A7,7,0,0,0,291.73,264.51Z"/><path class="cls-27" d="M274,259.51A10,10,0,0,0,269.4,258c-3.19-.06-6,2.41-7.44,5.28a11.88,11.88,0,0,0-1.27,7.59,8.48,8.48,0,0,0,4.47,6.07,4.06,4.06,0,0,0,2.21.44,4.56,4.56,0,0,0,2.54-1.56c1.71-1.79,2-3.93,3.25-5.87,1-1.57,3.24-.92,4.72-1.94C281.65,265.43,276.29,260.79,274,259.51Z"/><path class="cls-37" d="M275.67,266.43c-.68-.35-1.22-1-1.9-1.34-1-1-5.94-1.6-7,5.32a8.27,8.27,0,0,1-3.54,5.23,7.53,7.53,0,0,0,1.9,1.32,4.06,4.06,0,0,0,2.21.44,4.56,4.56,0,0,0,2.54-1.56c1.71-1.79,2-3.93,3.25-5.87,1-1.57,3.24-.92,4.72-1.94a3,3,0,0,0,1.07-1.22A4,4,0,0,1,275.67,266.43Z"/><path class="cls-25" d="M272.39,441.3c4.37,1.07,8,2.35,10,4.15H265.58l.33-3.91Z"/><path class="cls-25" d="M287.48,441.3c4.37,1.07,8,2.35,10,4.15H280.68l.32-3.91Z"/><path class="cls-39" d="M331.14,300.11a2.83,2.83,0,0,0-.36-.16,2.16,2.16,0,0,0-1.74.65,29.94,29.94,0,0,0-3.41,2.95h0a4.06,4.06,0,0,0-.66.72,2.74,2.74,0,0,0-.2,2.92,2.46,2.46,0,0,0,2,1.18,5.18,5.18,0,0,0,3.54-1.54,2.81,2.81,0,0,0-1.4-4.28,13.11,13.11,0,0,0,2-1.47,1.28,1.28,0,0,0,.35-.46A.41.41,0,0,0,331.14,300.11Z"/><path class="cls-29" d="M330.73,302.54a2.47,2.47,0,0,1-.15,3,5.14,5.14,0,0,1-3.53,1.54,2.46,2.46,0,0,1-2-1.18,2.72,2.72,0,0,1,.21-2.92C326.46,301.21,329.49,300.22,330.73,302.54Z"/><path class="cls-29" d="M328.75,301.54a13.23,13.23,0,0,0,2.44-1.75,1.23,1.23,0,0,0,.36-.46.43.43,0,0,0-.16-.51,2.21,2.21,0,0,0-.35-.16c-.63-.17-1.22.27-1.74.65a29.2,29.2,0,0,0-3.42,2.95A6,6,0,0,0,328.75,301.54Z"/><path class="cls-25" d="M307.31,317c6.25-4.15,11.19-8.61,16.85-13.63a.85.85,0,0,1,1.22.09c1,1.23,2.73,3.07,2.55,3.84a2.62,2.62,0,0,1-.7,1.1L311.39,326a17.25,17.25,0,0,1-3.41,3.15,5.85,5.85,0,0,1-4.43.94c-2.54-.63-4-3.25-5.35-5.47-6.82-11-5.7-14.92-4.86-18.29.58-2.35,1.31-4.66,1.73-7.05.14-.75-1.67-4.94-.64-5,3.08,3.6,7.7,14.57,10.85,22.13A1.38,1.38,0,0,0,307.31,317Z"/><path class="cls-40" d="M258,352l7.94,90a29.24,29.24,0,0,0,3.73.62,18.29,18.29,0,0,0,2.18-.28c.92-.17,1.73-.34,1.73-.34l.07-68.05h6.57l.77,68.05a17.52,17.52,0,0,0,4.05.54,23.59,23.59,0,0,0,4.39-.54L299,349.73Z"/><path class="cls-41" d="M278.46,358.77c.05,3.05-.16,5.8.9,8.57a5.35,5.35,0,0,0,5.41,3.52c3.93-.08,6.66-2.22,6.68-6.19,0-.51.25-5.89.51-5.9Z"/><path class="cls-41" d="M259.82,358.78c.05,3.05-.08,5.8.67,8.57.59,2.17,1.91,3.59,3.79,3.55,2.73-.07,4.26-3.11,4.61-6.16.06-.51.15-5.89.33-5.9Z"/><path class="cls-42" d="M273.69,374h0a.16.16,0,0,0,.13-.19c-1.05-6.12-.33-17.83-.32-17.94a.15.15,0,0,0,0-.13.17.17,0,0,0-.12-.05c-.11,0-10.59.49-15-.62a.15.15,0,0,0-.19.12.16.16,0,0,0,.11.2c4.12,1,13.48.7,14.91.64-.09,1.52-.65,12.1.34,17.83A.16.16,0,0,0,273.69,374Z"/><path class="cls-42" d="M275,374h0a.17.17,0,0,0,.15-.18,97.17,97.17,0,0,1-.23-17.73,138.34,138.34,0,0,0,22.58-2.45.17.17,0,0,0,.14-.19.16.16,0,0,0-.19-.13,138.73,138.73,0,0,1-22.68,2.44.15.15,0,0,0-.16.15,97.44,97.44,0,0,0,.21,17.94A.16.16,0,0,0,275,374Z"/><g class="cls-43"><path class="cls-44" d="M271.89,442.39c.92-.17,1.73-.34,1.73-.34l.07-68.05h.56a.4.4,0,0,0-.56-.17,6.87,6.87,0,0,0-2.69,2.52,5.19,5.19,0,0,0-1,3C269.45,400.28,270.67,416.25,271.89,442.39Z"/></g><path class="cls-42" d="M288.79,440.16a.17.17,0,0,1-.15-.18l.14-1.35a.17.17,0,0,1,.33,0L289,440a.16.16,0,0,1-.16.15Zm.41-4a.16.16,0,0,1-.15-.18l.27-2.61a.16.16,0,1,1,.32,0l-.26,2.62a.17.17,0,0,1-.17.15Zm.53-5.23a.16.16,0,0,1-.15-.18l.27-2.61a.17.17,0,0,1,.33,0l-.27,2.62a.17.17,0,0,1-.16.15Zm.53-5.22a.16.16,0,0,1-.14-.18l.27-2.62a.15.15,0,0,1,.17-.15.17.17,0,0,1,.15.18l-.27,2.62a.16.16,0,0,1-.16.15Zm.54-5.23a.17.17,0,0,1-.15-.18l.27-2.62a.16.16,0,0,1,.18-.15.17.17,0,0,1,.15.18l-.27,2.62a.17.17,0,0,1-.16.15Zm.53-5.23a.16.16,0,0,1-.14-.18l.26-2.62a.15.15,0,0,1,.18-.14.16.16,0,0,1,.15.18l-.27,2.61a.16.16,0,0,1-.16.15Zm.54-5.23a.17.17,0,0,1-.15-.18l.27-2.62c0-.09.1-.17.18-.14a.16.16,0,0,1,.15.18l-.27,2.61a.17.17,0,0,1-.17.15Zm.53-5.23a.16.16,0,0,1-.14-.18l.26-2.62c0-.09.1-.17.18-.14a.16.16,0,0,1,.15.18l-.27,2.61a.17.17,0,0,1-.16.15Zm.54-5.23a.17.17,0,0,1-.15-.18l.27-2.62a.14.14,0,0,1,.18-.14.16.16,0,0,1,.14.18l-.26,2.61a.16.16,0,0,1-.17.15Zm.53-5.23a.17.17,0,0,1-.15-.18l.27-2.62a.16.16,0,0,1,.17-.14h0a.17.17,0,0,1,.15.18l-.27,2.61a.16.16,0,0,1-.16.15Zm.54-5.23a.17.17,0,0,1-.15-.18l.27-2.62a.15.15,0,0,1,.18-.14.16.16,0,0,1,.14.18l-.26,2.61a.16.16,0,0,1-.17.15Zm.53-5.23a.17.17,0,0,1-.15-.18l.27-2.62a.15.15,0,0,1,.18-.14.17.17,0,0,1,.15.18l-.27,2.61a.16.16,0,0,1-.16.15Zm.53-5.23a.16.16,0,0,1-.14-.18l.27-2.62a.14.14,0,0,1,.18-.14.17.17,0,0,1,.14.18l-.27,2.61a.16.16,0,0,1-.16.15Zm.54-5.23a.17.17,0,0,1-.15-.18l.27-2.62a.16.16,0,0,1,.18-.14.17.17,0,0,1,.15.18l-.27,2.61a.16.16,0,0,1-.16.15Zm.53-5.23A.16.16,0,0,1,296,368l.26-2.61c0-.09.1-.18.18-.15a.17.17,0,0,1,.15.18l-.27,2.61a.16.16,0,0,1-.16.15Zm.54-5.23a.17.17,0,0,1-.15-.18l.27-2.61a.16.16,0,1,1,.32,0l-.26,2.61a.16.16,0,0,1-.17.15Zm.53-5.23a.16.16,0,0,1-.14-.18l.26-2.61c0-.09.09-.18.18-.15a.17.17,0,0,1,.15.18l-.27,2.61a.16.16,0,0,1-.16.15Z"/><path class="cls-25" d="M274.31,291.26c-13,3-22.79,34.87-40.16,32.76v5.67c8.13,0,19.23-2.59,28.34-15.07C275.65,296.58,274.31,291.26,274.31,291.26Z"/><path class="cls-45" d="M274.31,291.26c-13,3-22.79,34.87-40.16,32.76v5.67c8.13,0,19.23-2.59,28.34-15.07C275.65,296.58,274.31,291.26,274.31,291.26Z"/><path class="cls-25" d="M294.43,294.24c8,9.14,7.31,55.49,8.22,84.27-14.37,3-29.78,2.89-45.92.55,0,0-2.51-46.37,5.57-72.63C267.79,288.59,286,284.6,294.43,294.24Z"/><path class="cls-45" d="M267.73,355.36a102.07,102.07,0,0,1-4.3-30.13c0-8.6.24-18,2.5-26.44a28.16,28.16,0,0,0-3.63,7.64c-8.08,26.26-5.57,72.63-5.57,72.63a157.19,157.19,0,0,0,23.88,1.73A77,77,0,0,1,267.73,355.36Z"/><path class="cls-15" d="M140.83,279.77c1.17-.06,9.16-6,12.24-8a8.34,8.34,0,0,0,2.35-2,3,3,0,0,0,.45-2.92,3.68,3.68,0,0,0-3.74-2.31c-4,0-5.36,1.32-7.3,3.32C138.43,274.52,140.83,279.77,140.83,279.77Z"/><path class="cls-15" d="M176.66,303.65c3.48,1.56,7.2,3.12,11,2.63,1.47-.18,3.07-.85,3.56-2.25a3.3,3.3,0,0,0-1.1-3.4,8,8,0,0,0-3.43-1.54c-4.63-1.13-11.13-.51-15.72.8A41.49,41.49,0,0,0,176.66,303.65Z"/><path class="cls-15" d="M199.58,252.25c-1.55-1-3.27-2.29-3.26-4.13s1.92-3.24,3.76-3.25a7.67,7.67,0,0,1,4.93,2.21c5.86,5.14,5.13,11,5.13,11S201.31,253.34,199.58,252.25Z"/><path class="cls-15" d="M204.2,236.57a7.58,7.58,0,0,1-3.57-2.54,2.43,2.43,0,0,1-.37-2.06c.4-1.14,1.12-2.16,4-1.64,9.09,1.65,11.07,7.87,11.07,7.87S206.61,237.61,204.2,236.57Z"/><path class="cls-15" d="M230.83,250.34a14.36,14.36,0,0,0,9.7-5,8.93,8.93,0,0,0,2-3.61,3.59,3.59,0,0,0-5.78-3.8,9.49,9.49,0,0,0-3,4C232.7,243.93,230.83,250.34,230.83,250.34Z"/><path class="cls-46" d="M165.73,383.27l-26.48-23.34c-4.71-4.15-9.51-8.42-12.49-13.94-6.41-11.86-2.71-27.28,5.94-37.62s21.32-16.44,34.05-20.89,26-7.56,38.11-13.44c7.61-3.68,15.26-9.17,17.35-17.37a17.33,17.33,0,0,0-15.77-21.58"/><path class="cls-46" d="M237,241.87c-2.41,7.41-11.8,11.92-16.09,18.33"/><path class="cls-46" d="M203.26,250.39c1.85,2,4.07,3.57,5.68,5.72,3.41,4.55,3.7,11.94-1.35,16.53"/><path class="cls-46" d="M155.72,291.86a50.4,50.4,0,0,0,27.85,10.38"/><path class="cls-46" d="M137.89,302.79a27.5,27.5,0,0,1,9.25-30"/><path class="cls-15" d="M446.53,157.54a3.9,3.9,0,0,1,.56-3.89,2.86,2.86,0,0,1,3.05-.69c7.72,3.41,6.88,15.49,6.88,15.49S449.7,167.39,446.53,157.54Z"/><path class="cls-15" d="M446.34,180.17c-5,9.06,12.76,8.36,19.16,3C465.5,183.2,450.64,172.38,446.34,180.17Z"/><path class="cls-15" d="M468.79,158.23c-1.21-1.66-1.64-4.13-.33-5.7a4.41,4.41,0,0,1,4.18-1.25,9.8,9.8,0,0,1,4.69,2.87c5.84,7.29,3.1,14.43,3.1,14.43S470.76,160.94,468.79,158.23Z"/><path class="cls-15" d="M539.28,180.65a4,4,0,0,1,.77-4.12,3.45,3.45,0,0,1,2.59-.78,8.08,8.08,0,0,1,2.66.79,8.49,8.49,0,0,1,4.09,4.08c2.19,4.54.7,10.15.7,10.15S540.36,184.16,539.28,180.65Z"/><path class="cls-15" d="M517.11,197.26a11.39,11.39,0,0,0-11.77-1.9,6,6,0,0,0-2.52,1.9c-1.4,1.94-.91,4.78.54,6.69A14.68,14.68,0,0,0,509.2,208c3.95,1.8,10.09,2.16,14.29,3.23C523.49,211.24,523.47,202.87,517.11,197.26Z"/><path class="cls-46" d="M452.06,159.48c2.61,8.58,10,15.05,18.23,18.55s17.3,4.42,26.22,5,17.94.87,26.57,3.22c8.41,2.29,16.78,7.05,20.39,15,4.39,9.68.5,21.25-5.67,29.9s-14.46,15.63-20.43,24.42c-2.74,4-5,8.76-4.47,13.62.74,6.46,6.17,11.23,11.22,15.32"/><path class="cls-46" d="M472.62,156.34a51.37,51.37,0,0,1,11.79,25.58"/><path class="cls-46" d="M452.75,181.67a40.81,40.81,0,0,0,10.3,1.82,15.75,15.75,0,0,0,10.06-4.37"/><path class="cls-46" d="M545.07,181.18a17.54,17.54,0,0,1,5.25,11.8c.17,4.41-2.27,9.76-5.2,13.06"/><path class="cls-46" d="M511.93,201.2a177.29,177.29,0,0,0,18.87,15.53c3.21,2.26,9.58,5.16,12.41,4.42"/></g></g></g></svg>