<svg xmlns="http://www.w3.org/2000/svg" viewBox="0 0 20.36 31.59"><defs><style>.cls-1{fill:#666;}</style></defs><g id="Capa_2" data-name="Capa 2"><g id="Seccion_Cursos_-_Tema_02" data-name="Seccion Cursos - Tema 02"><path class="cls-1" d="M19.44,0H2.78A2.79,2.79,0,0,0,0,2.78V25.11a2.79,2.79,0,0,0,2.78,2.78H3.7v2.78a.93.93,0,0,0,1.44.77L7.4,29.93l2.27,1.51a.93.93,0,0,0,1.44-.77V27.89h6.48a.92.92,0,0,0,.92-.93V24.19h.93a.93.93,0,0,0,.92-.93V.93A.92.92,0,0,0,19.44,0ZM2.78,26a.93.93,0,1,1,0-1.85H3.7V26Zm6.48,2.9-1.34-.89a.92.92,0,0,0-1,0l-1.34.89V24.19H9.26Zm7.4-2.9H11.11V24.19h5.55Zm1.85-3.7H2.78a2.6,2.6,0,0,0-.93.16V2.78a.93.93,0,0,1,.93-.93H18.51Z"/><path class="cls-1" d="M4.63,13h11.1a.92.92,0,0,0,.93-.93V6.48a.93.93,0,0,0-.93-.93H4.63a.93.93,0,0,0-.93.93v5.61a.93.93,0,0,0,.93.93ZM5.55,7.4h9.26v3.77H5.55Z"/><path class="cls-1" d="M4.63,16.72h11.1a.93.93,0,1,0,0-1.85H4.63a.93.93,0,1,0,0,1.85Z"/></g></g></svg>