<svg xmlns="http://www.w3.org/2000/svg" viewBox="0 0 41.39 44.63"><defs><style>.cls-1{fill:#fff;}</style></defs><g id="Capa_2" data-name="Capa 2"><g id="Seccion_Cursos_-_Tema_05" data-name="Seccion Cursos - Tema 05"><path class="cls-1" d="M1.6,9.63H3.33L6.49,43.19a1.6,1.6,0,0,0,1.6,1.44l25.47-.09a1.61,1.61,0,0,0,1.59-1.46L38.07,9.5H39.8a1.59,1.59,0,1,0,0-3.18l-11.14,0V4.76A4.77,4.77,0,0,0,23.85,0L17.48,0a4.78,4.78,0,0,0-4.76,4.8V6.41l-11.14,0a1.59,1.59,0,1,0,0,3.18ZM15.91,4.8a1.57,1.57,0,0,1,1.58-1.59l6.37,0a1.6,1.6,0,0,1,1.6,1.59V6.36l-9.55,0ZM14.33,9.58l20.54-.07L32.09,41.36l-22.56.08-3-31.83Z"/><path class="cls-1" d="M14.43,38.24h.12A1.6,1.6,0,0,0,16,36.53h0L14.35,14.25a1.59,1.59,0,1,0-3.18.23l1.67,22.28A1.59,1.59,0,0,0,14.43,38.24Z"/><path class="cls-1" d="M20.8,38.21a1.59,1.59,0,0,0,1.59-1.59l-.08-22.29a1.6,1.6,0,0,0-3.19,0l.08,22.29A1.59,1.59,0,0,0,20.8,38.21Z"/><path class="cls-1" d="M27.06,38.19h.11a1.58,1.58,0,0,0,1.58-1.48l1.52-22.29a1.6,1.6,0,0,0-3.19-.22L25.57,36.49a1.59,1.59,0,0,0,1.48,1.7Z"/></g></g></svg>