<svg xmlns="http://www.w3.org/2000/svg" viewBox="0 0 31 31"><defs><style>.cls-1{fill:#4d4d4d;}</style></defs><g id="Capa_2" data-name="Capa 2"><g id="Seccion_Cursos" data-name="Seccion Cursos"><path class="cls-1" d="M29.89,22.14H27.68V17.71a1.11,1.11,0,0,0-1.11-1.1h-10V8.86h5.53a1.11,1.11,0,0,0,1.11-1.11V1.11A1.11,1.11,0,0,0,22.14,0H8.86A1.11,1.11,0,0,0,7.75,1.11V7.75A1.11,1.11,0,0,0,8.86,8.86h5.53v7.75h-10a1.11,1.11,0,0,0-1.11,1.1v4.43H1.11A1.11,1.11,0,0,0,0,23.25v6.64A1.11,1.11,0,0,0,1.11,31H7.75a1.11,1.11,0,0,0,1.11-1.11V23.25a1.11,1.11,0,0,0-1.11-1.11H5.54V18.82h8.85v3.32H12.18a1.11,1.11,0,0,0-1.11,1.11v6.64A1.11,1.11,0,0,0,12.18,31h6.64a1.11,1.11,0,0,0,1.11-1.11V23.25a1.11,1.11,0,0,0-1.11-1.11H16.61V18.82h8.85v3.32H23.25a1.11,1.11,0,0,0-1.11,1.11v6.64A1.11,1.11,0,0,0,23.25,31h6.64A1.11,1.11,0,0,0,31,29.89V23.25A1.11,1.11,0,0,0,29.89,22.14ZM10,2.21H21V6.64H10ZM6.64,28.79H2.21V24.36H6.64Zm11.07,0H13.29V24.36h4.42Zm11.08,0H24.36V24.36h4.43Z"/></g></g></svg>