<svg xmlns="http://www.w3.org/2000/svg" xmlns:xlink="http://www.w3.org/1999/xlink" viewBox="0 0 21.59 17.88"><defs><style>.cls-1{fill:none;}.cls-2{clip-path:url(#clip-path);}.cls-3{fill:#666;}</style><clipPath id="clip-path" transform="translate(0 -0.11)"><rect class="cls-1" width="21.78" height="18.36"/></clipPath></defs><g id="Capa_2" data-name="Capa 2"><g id="Seccion_Cursos" data-name="Seccion Cursos"><g class="cls-2"><path class="cls-3" d="M14.89,9.07H12.23a1.38,1.38,0,0,0-1.06-.88V5.07a.34.34,0,0,0-.38-.3.34.34,0,0,0-.37.3V8.19A1.31,1.31,0,0,0,9.3,9.38a1.38,1.38,0,0,0,1.49,1.23,1.48,1.48,0,0,0,1.44-.92h2.66a.31.31,0,1,0,0-.62Zm-4.1.92a.68.68,0,0,1-.74-.61.69.69,0,0,1,.74-.62.7.7,0,0,1,.75.62.69.69,0,0,1-.75.61Z" transform="translate(0 -0.11)"/><path class="cls-3" d="M18.65,3.11l1.53,1.26a.42.42,0,0,0,.52,0,2.2,2.2,0,0,0,0-3.53,3.47,3.47,0,0,0-4.27,0,.28.28,0,0,0-.11.21.28.28,0,0,0,.11.22l1.7,1.4-.64.53a11.24,11.24,0,0,0-6.7-2.12A11.21,11.21,0,0,0,4.1,3.2l-.64-.53,1.7-1.4a.28.28,0,0,0,.11-.22A.28.28,0,0,0,5.16.84,3.48,3.48,0,0,0,.88.84a2.21,2.21,0,0,0,0,3.53.42.42,0,0,0,.27.09.39.39,0,0,0,.26-.09L2.94,3.11l.62.51A7.63,7.63,0,0,0,.74,9.38a8.17,8.17,0,0,0,5,7.15l-1.13.93a.28.28,0,0,0,0,.44.44.44,0,0,0,.27.09.41.41,0,0,0,.26-.09l1.29-1.06a12,12,0,0,0,8.81,0l1.29,1.06a.42.42,0,0,0,.52,0,.27.27,0,0,0,0-.44l-1.12-.93a8.16,8.16,0,0,0,4.95-7.15A7.62,7.62,0,0,0,18,3.62Zm1.53-1.84a1.65,1.65,0,0,1,.24,2.43L17.24,1.07a2.67,2.67,0,0,1,2.94.2ZM1.17,3.7a1.65,1.65,0,0,1,.24-2.43,2.67,2.67,0,0,1,2.94-.2Zm9.62,13.36c-5.13,0-9.3-3.44-9.3-7.68s4.17-7.69,9.3-7.69S20.1,5.14,20.1,9.38s-4.17,7.68-9.31,7.68Z" transform="translate(0 -0.11)"/></g><path class="cls-3" d="M18.19,5.83a7.92,7.92,0,0,0-3.1-2.56v0h0a10.15,10.15,0,0,0-8.53,0h0s0,0,0,0A8,8,0,0,0,3.39,5.83h0v0A6.16,6.16,0,0,0,2.23,9.38,6.16,6.16,0,0,0,3.37,12.9h0l0,0a8.08,8.08,0,0,0,3.1,2.56h0a10.08,10.08,0,0,0,8.5,0h.05a8.08,8.08,0,0,0,3.1-2.56l0,0h0a6.16,6.16,0,0,0,1.14-3.52,6.16,6.16,0,0,0-1.14-3.52v0ZM15,14.8l-.18-.25a.41.41,0,0,0-.51-.11.28.28,0,0,0-.14.42l.18.25a9,9,0,0,1-3.2.71v-.29a.35.35,0,0,0-.38-.31.35.35,0,0,0-.37.31v.29a9,9,0,0,1-3.2-.71l.17-.25a.27.27,0,0,0-.13-.42.41.41,0,0,0-.51.11l-.18.25a7.2,7.2,0,0,1-2.34-1.94l.3-.14a.28.28,0,0,0,.14-.42.41.41,0,0,0-.51-.11l-.31.14A5.49,5.49,0,0,1,3,9.69h.35a.31.31,0,1,0,0-.62H3a5.53,5.53,0,0,1,.85-2.65l.31.15a.41.41,0,0,0,.19,0,.39.39,0,0,0,.32-.15A.28.28,0,0,0,4.53,6l-.3-.15A7.2,7.2,0,0,1,6.57,4l.18.26a.41.41,0,0,0,.32.15.43.43,0,0,0,.19,0,.27.27,0,0,0,.13-.42l-.17-.26a9,9,0,0,1,3.2-.7v.29a.35.35,0,0,0,.37.31.35.35,0,0,0,.38-.31V2.94a9,9,0,0,1,3.2.7l-.18.26a.28.28,0,0,0,.14.42.41.41,0,0,0,.19,0,.42.42,0,0,0,.32-.15L15,4a7.2,7.2,0,0,1,2.34,1.94L17.05,6a.28.28,0,0,0-.13.42.41.41,0,0,0,.32.15.43.43,0,0,0,.19,0l.3-.15a5.44,5.44,0,0,1,.86,2.65h-.35a.31.31,0,1,0,0,.62h.35a5.4,5.4,0,0,1-.86,2.64l-.3-.15a.42.42,0,0,0-.51.12.28.28,0,0,0,.13.42l.31.14A7.2,7.2,0,0,1,15,14.8Z" transform="translate(0 -0.11)"/></g></g></svg>