<svg xmlns="http://www.w3.org/2000/svg" xmlns:xlink="http://www.w3.org/1999/xlink" viewBox="0 0 27.03 20.65"><defs><style>.cls-1{fill:none;}.cls-2{clip-path:url(#clip-path);}.cls-3{fill:#666;}</style><clipPath id="clip-path" transform="translate(0 -0.12)"><rect class="cls-1" width="27.26" height="21.2"/></clipPath></defs><g id="Capa_2" data-name="Capa 2"><g id="Seccion_Cursos" data-name="Seccion Cursos"><g class="cls-2"><path class="cls-3" d="M18.64,10.48H15.31a1.7,1.7,0,0,0-1.33-1V5.86a.43.43,0,0,0-.47-.36.41.41,0,0,0-.46.36v3.6a1.55,1.55,0,0,0-1.4,1.37,1.69,1.69,0,0,0,1.86,1.42,1.84,1.84,0,0,0,1.8-1.06h3.33a.41.41,0,0,0,.46-.36.42.42,0,0,0-.46-.35Zm-5.13,1.06a.85.85,0,0,1-.93-.71.85.85,0,0,1,.93-.71.84.84,0,0,1,.93.71.84.84,0,0,1-.93.71Z" transform="translate(0 -0.12)"/><path class="cls-3" d="M23.35,3.59l1.91,1.46a.59.59,0,0,0,.66,0,2.44,2.44,0,0,0,0-4.08,4.65,4.65,0,0,0-5.35,0,.3.3,0,0,0-.14.25.33.33,0,0,0,.14.25l2.12,1.62-.79.6a15,15,0,0,0-8.39-2.45A14.9,14.9,0,0,0,5.13,3.69l-.8-.6L6.46,1.47a.33.33,0,0,0,.14-.25A.3.3,0,0,0,6.46,1,4.65,4.65,0,0,0,1.11,1a2.43,2.43,0,0,0,0,4.08.56.56,0,0,0,.33.1.61.61,0,0,0,.33-.1L3.68,3.59l.78.6A8.53,8.53,0,0,0,.93,10.83c0,3.52,2.5,6.6,6.21,8.27L5.73,20.17a.3.3,0,0,0,0,.5.55.55,0,0,0,.33.11.52.52,0,0,0,.32-.11L8,19.45a16.19,16.19,0,0,0,11,0l1.61,1.22a.55.55,0,0,0,.66,0,.3.3,0,0,0,0-.5L19.89,19.1c3.71-1.67,6.21-4.75,6.21-8.27a8.53,8.53,0,0,0-3.53-6.64Zm1.91-2.12a1.81,1.81,0,0,1,.3,2.8l-4-3a3.55,3.55,0,0,1,3.68.23ZM1.46,4.27a1.81,1.81,0,0,1,.31-2.8,3.54,3.54,0,0,1,3.67-.23ZM13.51,19.71c-6.42,0-11.65-4-11.65-8.88S7.09,2,13.51,2s11.65,4,11.65,8.88-5.22,8.88-11.65,8.88Z" transform="translate(0 -0.12)"/></g><path class="cls-3" d="M22.78,6.73a10,10,0,0,0-3.89-3h0a13.6,13.6,0,0,0-10.67,0h0a10,10,0,0,0-3.88,3l0,0v0a6.73,6.73,0,0,0-1.43,4.06A6.76,6.76,0,0,0,4.22,14.9s0,0,0,0l0,0a9.86,9.86,0,0,0,3.87,3s0,0,0,0h0A13.26,13.26,0,0,0,13.51,19a13.19,13.19,0,0,0,5.32-1.08h0l0,0a9.83,9.83,0,0,0,3.88-3l0,0v0a6.7,6.7,0,0,0,1.43-4.07A6.67,6.67,0,0,0,22.8,6.77v0l0,0Zm-4,10.37-.22-.29a.56.56,0,0,0-.64-.13c-.22.1-.3.31-.17.48l.22.3a12.28,12.28,0,0,1-4,.81v-.33a.48.48,0,0,0-.93,0v.33a12.39,12.39,0,0,1-4-.81l.23-.3c.13-.17.05-.38-.17-.48a.55.55,0,0,0-.64.13l-.22.29a9,9,0,0,1-2.94-2.24l.38-.17c.23-.1.31-.31.18-.48a.56.56,0,0,0-.64-.13l-.39.17a6.2,6.2,0,0,1-1.07-3.06h.44a.43.43,0,0,0,.47-.36c0-.19-.21-.35-.47-.35H3.75A6.07,6.07,0,0,1,4.82,7.42l.39.17a.59.59,0,0,0,.23,0,.54.54,0,0,0,.41-.18A.32.32,0,0,0,5.67,7L5.29,6.8A9.17,9.17,0,0,1,8.23,4.56l.22.3a.51.51,0,0,0,.4.18.69.69,0,0,0,.24,0,.32.32,0,0,0,.17-.49L9,4.21a12.09,12.09,0,0,1,4-.82v.34a.42.42,0,0,0,.46.35c.26,0,.47-.16.47-.35V3.39a12,12,0,0,1,4,.82l-.22.29a.32.32,0,0,0,.17.49.59.59,0,0,0,.23,0,.51.51,0,0,0,.4-.18l.23-.3A9.13,9.13,0,0,1,21.73,6.8L21.35,7a.32.32,0,0,0-.17.49.52.52,0,0,0,.4.18.69.69,0,0,0,.24,0l.38-.17a6,6,0,0,1,1.07,3.06h-.44a.42.42,0,0,0-.46.35.41.41,0,0,0,.46.36h.44a6,6,0,0,1-1.07,3.06l-.38-.17a.55.55,0,0,0-.64.13c-.13.17-.05.38.17.48l.38.17A8.89,8.89,0,0,1,18.8,17.1Z" transform="translate(0 -0.12)"/></g></g></svg>