<svg xmlns="http://www.w3.org/2000/svg" viewBox="0 0 27.72 30.85"><defs><style>.cls-1{fill:#666;}</style></defs><g id="Capa_2" data-name="Capa 2"><g id="Seccion_Cursos" data-name="Seccion Cursos"><path class="cls-1" d="M19.89,3.37V.6a.61.61,0,0,0-1.21,0V3.37a.61.61,0,1,0,1.21,0Z"/><path class="cls-1" d="M25.31,15.19h-4.5a15.21,15.21,0,0,0,.93-5.76c0-.35,0-.56,0-.69a2.41,2.41,0,0,0-4.82.06v.6c0,3.81-4.89,5.95-8.58,6.87a1.81,1.81,0,0,0-1.66-1.08H.6a.6.6,0,0,0-.6.6V30.25a.6.6,0,0,0,.6.6h6a1.81,1.81,0,0,0,1.65-1.07l.85.22a19.55,19.55,0,0,0,6.08.85h6.48a2.41,2.41,0,0,0,2.41-2.41,2.48,2.48,0,0,0-.4-1.34,2.4,2.4,0,0,0,1.61-2.27,2.43,2.43,0,0,0-.4-1.34,2.43,2.43,0,0,0,1.6-2.28,2.48,2.48,0,0,0-.4-1.34,2.41,2.41,0,0,0-.8-4.68ZM7.23,29.05a.6.6,0,0,1-.6.6H1.21V16.39H6.63a.6.6,0,0,1,.6.6ZM25.31,18.8h-3a.61.61,0,1,0,0,1.21h1.8a1.21,1.21,0,1,1,0,2.41h-3a.6.6,0,1,0,0,1.2H22.9a1.21,1.21,0,0,1,0,2.41h-3a.61.61,0,1,0,0,1.21h1.8a1.21,1.21,0,1,1,0,2.41H15.21a18.39,18.39,0,0,1-5.77-.81l-1-.26V17.48c4.36-1,9.64-3.58,9.64-8.08V8.8a1.21,1.21,0,1,1,2.41,0h0a14.07,14.07,0,0,1-1,6.39h-2a.6.6,0,1,0,0,1.2h7.83a1.21,1.21,0,0,1,0,2.41Z"/><path class="cls-1" d="M11.45,8.2a.6.6,0,0,0,.6.6h2.41a.61.61,0,1,0,0-1.21H12.05A.6.6,0,0,0,11.45,8.2Z"/><path class="cls-1" d="M23.5,8.2a.6.6,0,0,0,.6.6h2.41a.61.61,0,1,0,0-1.21H24.1A.6.6,0,0,0,23.5,8.2Z"/><path class="cls-1" d="M24,2.66l-1.7,1.7a.6.6,0,0,0,.85.85l1.7-1.7A.6.6,0,0,0,24,2.66Z"/><path class="cls-1" d="M16.3,5.21a.59.59,0,0,0,0-.85l-1.7-1.7a.6.6,0,0,0-.86,0,.61.61,0,0,0,0,.85l1.71,1.7A.59.59,0,0,0,16.3,5.21Z"/></g></g></svg>