<svg xmlns="http://www.w3.org/2000/svg" xmlns:xlink="http://www.w3.org/1999/xlink" viewBox="0 0 42 32.36"><defs><style>.cls-1{fill:none;}.cls-2{clip-path:url(#clip-path);}.cls-3{fill:#4d4d4d;}</style><clipPath id="clip-path"><rect class="cls-1" width="42" height="32.43"/></clipPath></defs><g id="Capa_2" data-name="Capa 2"><g id="Seccion_Anuncios_02" data-name="Seccion Anuncios 02"><g class="cls-2"><path class="cls-3" d="M41.3,3.5a.7.7,0,0,0-.7.7V29.4H36.8a59.12,59.12,0,0,0-13.38,1.53A1.41,1.41,0,0,1,22,30.34,15.9,15.9,0,0,1,30.25,28H38.5a.7.7,0,0,0,.7-.7V22.4a.7.7,0,1,0-1.4,0v4.2H30.25a17.31,17.31,0,0,0-8.55,2.25V9.8a.7.7,0,0,0-1.4,0V28.85a17.31,17.31,0,0,0-8.55-2.25H4.2V1.4H15A5.32,5.32,0,0,1,20.3,6.72a.7.7,0,0,0,1.4,0A5.32,5.32,0,0,1,27,1.4H37.8V19.6a.7.7,0,0,0,1.4,0V.7a.7.7,0,0,0-.7-.7H27a6.74,6.74,0,0,0-6,3.73A6.74,6.74,0,0,0,15,0H3.5a.7.7,0,0,0-.7.7V27.3a.7.7,0,0,0,.7.7h8.25a15.93,15.93,0,0,1,8.31,2.34,1.42,1.42,0,0,1-1.47.59A59.14,59.14,0,0,0,5.2,29.4H1.4V4.2a.7.7,0,0,0-.7-.7.7.7,0,0,0-.7.7V30.1a.7.7,0,0,0,.7.7H5.2a58.09,58.09,0,0,1,13.07,1.49A2.79,2.79,0,0,0,21,31.4a2.79,2.79,0,0,0,2.73.89A58.09,58.09,0,0,1,36.8,30.8h4.5a.7.7,0,0,0,.7-.7V4.2a.7.7,0,0,0-.7-.7Z"/></g><path class="cls-3" d="M18.71,6A6.7,6.7,0,0,0,15,4.9H7A.7.7,0,0,0,7,6.3h8a5.33,5.33,0,0,1,2.95.89.69.69,0,0,0,1-.19A.7.7,0,0,0,19,6.47a.72.72,0,0,0-.3-.44Z"/><path class="cls-3" d="M35,4.9H27A6.7,6.7,0,0,0,23.29,6a.7.7,0,1,0,.78,1.16A5.33,5.33,0,0,1,27,6.3h8a.7.7,0,0,0,0-1.4Z"/><path class="cls-3" d="M18.71,9.53A6.7,6.7,0,0,0,15,8.4H7A.7.7,0,0,0,7,9.8h8a5.33,5.33,0,0,1,2.95.89.69.69,0,0,0,1-.19A.7.7,0,0,0,19,10a.72.72,0,0,0-.3-.44Z"/><path class="cls-3" d="M35,8.4H27a6.7,6.7,0,0,0-3.73,1.13.7.7,0,0,0,.78,1.16A5.33,5.33,0,0,1,27,9.8h8a.7.7,0,0,0,0-1.4Z"/><path class="cls-3" d="M18.71,13A6.7,6.7,0,0,0,15,11.9H7a.7.7,0,1,0,0,1.4h8a5.33,5.33,0,0,1,2.95.89.69.69,0,0,0,1-.19.7.7,0,0,0,.11-.53.72.72,0,0,0-.3-.44Z"/><path class="cls-3" d="M35,11.9H27A6.7,6.7,0,0,0,23.29,13a.7.7,0,0,0,.78,1.16A5.33,5.33,0,0,1,27,13.3h8a.7.7,0,0,0,0-1.4Z"/><path class="cls-3" d="M18.71,16.53A6.7,6.7,0,0,0,15,15.4H7a.7.7,0,0,0,0,1.4h8a5.33,5.33,0,0,1,2.95.89.68.68,0,0,0,.53.11.72.72,0,0,0,.44-.3A.68.68,0,0,0,19,17a.72.72,0,0,0-.3-.45Z"/><path class="cls-3" d="M35,15.4H27a6.7,6.7,0,0,0-3.73,1.13.7.7,0,0,0,.78,1.16A5.33,5.33,0,0,1,27,16.8h8a.7.7,0,1,0,0-1.4Z"/><path class="cls-3" d="M18.71,20A6.7,6.7,0,0,0,15,18.9H7a.7.7,0,0,0,0,1.4h8a5.33,5.33,0,0,1,2.95.89.68.68,0,0,0,.53.11.71.71,0,0,0,.55-.82.72.72,0,0,0-.3-.45Z"/><path class="cls-3" d="M35,18.9H27A6.7,6.7,0,0,0,23.29,20a.7.7,0,0,0,.78,1.16A5.33,5.33,0,0,1,27,20.3h8a.7.7,0,0,0,0-1.4Z"/><path class="cls-3" d="M15,22.4H7a.7.7,0,0,0,0,1.4h8a5.33,5.33,0,0,1,2.95.89.68.68,0,0,0,.53.11A.71.71,0,0,0,19,24a.72.72,0,0,0-.3-.45A6.68,6.68,0,0,0,15,22.4Z"/><path class="cls-3" d="M35,22.4H27a6.7,6.7,0,0,0-3.73,1.13.7.7,0,0,0,.78,1.16A5.33,5.33,0,0,1,27,23.8h8a.7.7,0,0,0,0-1.4Z"/></g></g></svg>