<svg xmlns="http://www.w3.org/2000/svg" xmlns:xlink="http://www.w3.org/1999/xlink" viewBox="0 0 23 23.06"><defs><style>.cls-1{fill:none;}.cls-2{clip-path:url(#clip-path);}.cls-3{fill:#666;}</style><clipPath id="clip-path" transform="translate(0 0.06)"><rect class="cls-1" width="23" height="23"/></clipPath></defs><g id="Capa_2" data-name="Capa 2"><g id="Seccion_Cursos_-_Tema_02" data-name="Seccion Cursos - Tema 02"><g class="cls-2"><path class="cls-3" d="M16.29,9.52h0a4.79,4.79,0,0,1,0-9.58h0a4.79,4.79,0,1,1,0,9.58ZM12.46,4.73a3.85,3.85,0,0,0,3.83,3.84h0A3.84,3.84,0,1,0,16.3.9h0a3.84,3.84,0,0,0-3.83,3.83Z" transform="translate(0 0.06)"/><path class="cls-3" d="M22.52,11.44a.47.47,0,0,1-.34-.14L19,8.12a.48.48,0,0,1,0-.67.48.48,0,0,1,.68,0l3.18,3.18a.47.47,0,0,1,0,.67.45.45,0,0,1-.34.14Z" transform="translate(0 0.06)"/></g><path class="cls-3" d="M16.77,23H2.4A2.4,2.4,0,0,1,0,20.6V2.4A2.41,2.41,0,0,1,2.4,0H9.1a.47.47,0,0,1,.48.48A.48.48,0,0,1,9.1,1H2.4A1.43,1.43,0,0,0,1,2.4V20.6A1.43,1.43,0,0,0,2.4,22H16.77a1.44,1.44,0,0,0,1.44-1.44V14.85a.47.47,0,0,1,.48-.47.48.48,0,0,1,.48.47V20.6a2.4,2.4,0,0,1-2.4,2.4Z" transform="translate(0 0.06)"/><path class="cls-3" d="M4.06,19.47a.43.43,0,0,1-.43-.42V14.8a.43.43,0,0,1,.43-.42H5.33a1.7,1.7,0,1,1,0,3.39H4.48v1.28a.42.42,0,0,1-.42.42Zm.42-2.55h.85a.85.85,0,0,0,0-1.7H4.48Z" transform="translate(0 0.06)"/><path class="cls-3" d="M10.06,19.47H8.15a.45.45,0,0,1-.48-.42V14.8a.45.45,0,0,1,.48-.42h1.91a1.37,1.37,0,0,1,1.44,1.27V18.2a1.37,1.37,0,0,1-1.44,1.27Zm-1.43-.85h1.43a.45.45,0,0,0,.48-.42V15.65a.46.46,0,0,0-.48-.43H8.63Z" transform="translate(0 0.06)"/><path class="cls-3" d="M12.56,19.47a.42.42,0,0,1-.43-.42v-3.4a1.27,1.27,0,0,1,1.28-1.27h1.7a.42.42,0,0,1,0,.84h-1.7a.43.43,0,0,0-.43.43v3.4a.42.42,0,0,1-.42.42Z" transform="translate(0 0.06)"/><path class="cls-3" d="M14.68,17.21h-1.9a.37.37,0,0,1,0-.74h1.9a.37.37,0,0,1,0,.74Z" transform="translate(0 0.06)"/></g></g></svg>