<svg xmlns="http://www.w3.org/2000/svg" xmlns:xlink="http://www.w3.org/1999/xlink" viewBox="0 0 19.06 18.4"><defs><style>.cls-1{fill:none;}.cls-2{clip-path:url(#clip-path);}.cls-3{fill:#666;}</style><clipPath id="clip-path" transform="translate(0 -0.01)"><rect class="cls-1" width="21.84" height="18.43"/></clipPath></defs><g id="Capa_2" data-name="Capa 2"><g id="Seccion_Cursos_-_Tema_02" data-name="Seccion Cursos - Tema 02"><g class="cls-2"><path class="cls-3" d="M10,.3,4.26,3.8H.64A.64.64,0,0,0,0,4.44V14a.64.64,0,0,0,.64.64H4.26L10,18.13a1.91,1.91,0,0,0,2.91-1.64V1.94A1.91,1.91,0,0,0,10,.3ZM1.28,5.08H3.8v8.27H1.28ZM11.64,16.49a.64.64,0,0,1-1,.55L5.08,13.63V4.8l5.59-3.41a.64.64,0,0,1,1,.55Z" transform="translate(0 -0.01)"/></g><path class="cls-3" d="M14.75,7.55a.65.65,0,0,0,0,.91,1.08,1.08,0,0,1,0,1.51.64.64,0,1,0,.9.9,2.36,2.36,0,0,0,0-3.32.63.63,0,0,0-.9,0Z" transform="translate(0 -0.01)"/><g class="cls-2"><path class="cls-3" d="M17.58,5.62a.63.63,0,0,0-.9,0,.65.65,0,0,0,0,.91,3.8,3.8,0,0,1,0,5.37.64.64,0,1,0,.9.9,5.08,5.08,0,0,0,0-7.18Z" transform="translate(0 -0.01)"/></g></g></g></svg>