<svg xmlns="http://www.w3.org/2000/svg" viewBox="0 0 19 22.8"><defs><style>.cls-1{fill:#666;}</style></defs><g id="Capa_2" data-name="Capa 2"><g id="Seccion_Cursos_-_Tema_02" data-name="Seccion Cursos - Tema 02"><path class="cls-1" d="M16.63,22.8H2.38A2.39,2.39,0,0,1,0,20.42v-18A2.39,2.39,0,0,1,2.38,0H16.63A2.38,2.38,0,0,1,19,2.38v18a2.38,2.38,0,0,1-2.37,2.38ZM2.38,1A1.43,1.43,0,0,0,1,2.38v18a1.43,1.43,0,0,0,1.43,1.43H16.63a1.43,1.43,0,0,0,1.42-1.43v-18A1.43,1.43,0,0,0,16.63,1Z"/><path class="cls-1" d="M9,9.5A.47.47,0,0,1,8.55,9V8.55H3.8V9a.48.48,0,1,1-.95,0V8.07a.47.47,0,0,1,.48-.47H9a.47.47,0,0,1,.48.47V9A.47.47,0,0,1,9,9.5Z"/><path class="cls-1" d="M6.17,14.25a.47.47,0,0,1-.47-.48V8.07a.48.48,0,0,1,1,0v5.7a.47.47,0,0,1-.48.48Z"/><path class="cls-1" d="M7.13,14.25H5.23a.48.48,0,1,1,0-.95h1.9a.48.48,0,0,1,0,.95Z"/><path class="cls-1" d="M15.67,8.55H11.88a.48.48,0,1,1,0-1h3.79a.48.48,0,1,1,0,1Z"/><path class="cls-1" d="M15.67,11.4H11.88a.48.48,0,1,1,0-1h3.79a.48.48,0,1,1,0,1Z"/><path class="cls-1" d="M15.67,14.25H11.88a.48.48,0,1,1,0-.95h3.79a.48.48,0,1,1,0,.95Z"/><path class="cls-1" d="M15.67,17.1H3.33a.48.48,0,1,1,0-1H15.67a.48.48,0,1,1,0,1Z"/><path class="cls-1" d="M15.67,20H3.33a.48.48,0,1,1,0-.95H15.67a.48.48,0,1,1,0,.95Z"/></g></g></svg>