<svg xmlns="http://www.w3.org/2000/svg" viewBox="0 0 42.5 42.5"><defs><style>.cls-1{fill:#fff;stroke:#fff;stroke-miterlimit:10;stroke-width:0.5px;}</style></defs><g id="Capa_2" data-name="Capa 2"><g id="Seccion_Cursos_-_Tema_05" data-name="Seccion Cursos - Tema 05"><path class="cls-1" d="M41.15,3.76A7.41,7.41,0,0,0,29.63,2.41a7.36,7.36,0,0,0-1.77,2.88,16.34,16.34,0,0,1-3.73,6l-.35.34-.56-.56a3.28,3.28,0,0,0-4.64,4.64l.58.59L8.69,26.85a7.31,7.31,0,0,0-1.78,2.88c-1.19,3.57-2,4.37-3.31,5.69L1,38.05a2.46,2.46,0,0,0,3.48,3.48L7.08,38.9a20.87,20.87,0,0,1,5.62-3.27l.12-.06a7.39,7.39,0,0,0,2.83-1.76L26.12,23.3l.58.57a3.26,3.26,0,0,0,4.64,0,3.23,3.23,0,0,0,1-2.32,3.27,3.27,0,0,0-1-2.32l-.6-.59.34-.35a16.91,16.91,0,0,1,6.15-3.68A7.37,7.37,0,0,0,41.15,3.76ZM14.49,32.65A5.74,5.74,0,0,1,12.26,34H12.2l-.07,0h0l-.1.05a23,23,0,0,0-6.11,3.61L3.29,40.37a.84.84,0,0,1-.58.24.83.83,0,0,1-.58-.24.8.8,0,0,1-.24-.58.78.78,0,0,1,.24-.58l2.63-2.63c1.53-1.53,2.45-2.58,3.7-6.33A5.68,5.68,0,0,1,9.85,28L20.32,17.5,25,22.14Zm15.69-9.94a1.62,1.62,0,0,1-2.32,0L26.7,21.55h0l-5.8-5.8h0l-1.16-1.16a1.63,1.63,0,0,1-.48-1.16,1.64,1.64,0,0,1,.48-1.16,1.64,1.64,0,0,1,2.32,0l1.14,1.14h0l5.8,5.8,1.18,1.17A1.64,1.64,0,0,1,30.18,22.71Zm9.59-12.1a5.66,5.66,0,0,1-3.06,2.44,18.68,18.68,0,0,0-6.79,4.08l-.34.35-4.64-4.65.35-.34A18.24,18.24,0,0,0,29.42,5.8a5.69,5.69,0,0,1,6.07-3.87,5.74,5.74,0,0,1,4.28,8.68Z"/></g></g></svg>