<svg xmlns="http://www.w3.org/2000/svg" viewBox="0 0 46.63 54.92"><defs><style>.cls-1{fill:#ff5a47;}.cls-2{fill:#fe8047;}.cls-3{fill:#a4d43b;}.cls-4{fill:#cce332;}.cls-5{fill:#fcc023;}.cls-6{fill:#fcd72b;}.cls-7{fill:#0f4c81;}.cls-8{fill:#2d6aab;}.cls-9{fill:#4b88d5;}.cls-10{fill:#fff7ba;}.cls-11{fill:#fff04a;}.cls-12{fill:#fff;}.cls-13{fill:#404242;}.cls-14{fill:#565959;}</style></defs><g id="Capa_2" data-name="Capa 2"><g id="Seccion_Progreso_-_Mis_Medallas" data-name="Seccion Progreso - Mis Medallas"><path class="cls-1" d="M43.32,28.88,40,33.61l3.32,4.74h2.49a.83.83,0,0,0,.82-.83V29.71a.83.83,0,0,0-.82-.83Z"/><rect class="cls-2" x="36.69" y="28.88" width="6.63" height="9.47"/><path class="cls-3" d="M43.32,16.1,40,20.83l3.32,4.73h2.49a.82.82,0,0,0,.82-.82V16.93a.83.83,0,0,0-.82-.83Z"/><rect class="cls-4" x="36.69" y="16.1" width="6.63" height="9.47"/><path class="cls-5" d="M43.32,3.32,40,8.05l3.32,4.73h2.49a.83.83,0,0,0,.82-.83V4.14a.82.82,0,0,0-.82-.82Z"/><rect class="cls-6" x="36.69" y="3.32" width="6.63" height="9.47"/><path class="cls-7" d="M5,0,18.23,46.63H0V5A5,5,0,0,1,5,0Z"/><path class="cls-8" d="M40,.83V41.66L26.74,43.32,36.69,0h2.49A.83.83,0,0,1,40,.83Z"/><path class="cls-9" d="M36.69,0V43.32H5V0H28.4l2.49,3.32L33.37,0Z"/><path class="cls-7" d="M40,51.61v2.48a.83.83,0,0,1-.82.83H36.69l-3.32-6.63Z"/><path class="cls-7" d="M40,41.66V45l-6.63,3.31,3.32-6.63Z"/><path class="cls-8" d="M5,41.66a5,5,0,0,0-5,5V50a5,5,0,0,0,5,5H28.4l2.49-1.65,2.48,1.65h3.32V41.66Z"/><path class="cls-10" d="M36.69,45H40a4.67,4.67,0,0,0-1.37,3.31L32,50Z"/><path class="cls-11" d="M40,51.61H36.69L32,48.29h6.63A4.71,4.71,0,0,0,40,51.61Z"/><path class="cls-10" d="M36.69,51.61H5A1.66,1.66,0,0,1,3.32,50V48.29L5,46.63H33.66l1.65,1.66a4.68,4.68,0,0,0,1.38,3.32Z"/><path class="cls-12" d="M5,45H36.69a4.64,4.64,0,0,0-1.38,3.31h-32V46.63A1.65,1.65,0,0,1,5,45Z"/><path class="cls-13" d="M28.4,41.66V54.92h5V41.66l-2.48-3.31Z"/><rect class="cls-14" x="28.4" width="4.97" height="41.66"/></g></g></svg>