<svg xmlns="http://www.w3.org/2000/svg" viewBox="0 0 57 54.46"><defs><style>.cls-1{fill:#ecf3fb;}.cls-2{fill:#f7fcff;}.cls-3{fill:#e0e6f5;}.cls-4{fill:#89ce6d;}.cls-5{fill:#5eb16a;}.cls-6{fill:#fff7e7;}.cls-7{fill:#ffe6ce;}.cls-8{fill:#6ae1db;}.cls-9{fill:#21c8c7;}.cls-10{fill:#fccab4;}.cls-11{fill:#fd465f;}.cls-12{fill:#ce0c51;}.cls-13{fill:#f8bd3f;}.cls-14{fill:#fd9326;}</style></defs><g id="Capa_2" data-name="Capa 2"><g id="Seccion_Progreso_-_Mis_Medallas" data-name="Seccion Progreso - Mis Medallas"><path class="cls-1" d="M17.39,11.51a8.17,8.17,0,0,1-8,8.16l1.91,1.65H41.72a9.85,9.85,0,0,0,9.85-9.85H17.39v0Z"/><path class="cls-2" d="M41.72,1.62H11.27L9.36,3.35a8.17,8.17,0,0,1,8,8.12H51.57a9.85,9.85,0,0,0-9.85-9.85Z"/><path class="cls-3" d="M45.18,13H17.25a8.13,8.13,0,0,1-1.48,3.35H45.18Z"/><path class="cls-1" d="M45.28,6.47H15.64a8,8,0,0,1,1.57,3.34H45.28Z"/><path class="cls-4" d="M42.38,0h-33V3.35h33a8.17,8.17,0,0,1,8.16,8.12h3.35A11.53,11.53,0,0,0,42.38,0Z"/><path class="cls-5" d="M50.54,11.47v0a8.17,8.17,0,0,1-8.16,8.16h-33V23L24,24.23,42.38,23a11.52,11.52,0,0,0,11.51-11.5v0Z"/><path class="cls-6" d="M57,26.36l-2.79-1.58H9A5.93,5.93,0,0,0,3.05,30.7a1.09,1.09,0,0,0,0,.18L27,33.75l25.43-2.87A4.57,4.57,0,0,1,57,26.36Z"/><path class="cls-7" d="M52.39,30.88H3.06A5.92,5.92,0,0,0,9,36.63H55.05l2-1.23a4.57,4.57,0,0,1-4.61-4.52Z"/><path class="cls-8" d="M7.86,26.36H57V23H7.86A7.88,7.88,0,0,0,0,30.88l2,.82,1.39-.82a4.52,4.52,0,0,1,4.51-4.52Z"/><path class="cls-9" d="M3.35,30.88H0a7.87,7.87,0,0,0,7.86,7.86L31.62,40.5,57,38.74V35.39H7.86a4.52,4.52,0,0,1-4.51-4.51Z"/><path class="cls-7" d="M52.73,29.17H44.1L40,29.89l-4.16-.72h-28v1.71L30,31.55l22.36-.67a4.42,4.42,0,0,1,.34-1.71Z"/><path class="cls-10" d="M52.7,32.52a4.47,4.47,0,0,1-.31-1.64H7.88v1.64Z"/><path class="cls-2" d="M57,42.08,54.21,40.5H9a5.93,5.93,0,0,0-5.93,5.93,1,1,0,0,0,0,.17L27,49.48,52.39,46.6A4.57,4.57,0,0,1,57,42.08Z"/><path class="cls-1" d="M52.39,46.6H3.06A5.93,5.93,0,0,0,9,52.36H55.05l2-1.24a4.57,4.57,0,0,1-4.61-4.52Z"/><path class="cls-11" d="M7.86,42.08H57V38.74H7.86A7.87,7.87,0,0,0,0,46.6l2,.82,1.39-.82a4.52,4.52,0,0,1,4.51-4.52Z"/><path class="cls-12" d="M3.35,46.6H0a7.87,7.87,0,0,0,7.86,7.86H57V51.11H7.86A4.51,4.51,0,0,1,3.35,46.6Z"/><path class="cls-1" d="M52.73,44.89H7.88V46.6L30,47.28l22.36-.68a4.46,4.46,0,0,1,.34-1.71Z"/><path class="cls-3" d="M52.7,48.24a4.47,4.47,0,0,1-.31-1.64H7.88v1.64Z"/><path class="cls-13" d="M44.1,29.19H35.85v6.2L40,36.63l4.13-1.24Z"/><path class="cls-14" d="M35.85,35.39V46.6l4.06-1.71L44.1,46.6V35.39Z"/></g></g></svg>