<svg xmlns="http://www.w3.org/2000/svg" viewBox="0 0 27.72 24.47"><defs><style>.cls-1{fill:#c1272d;}</style></defs><g id="Capa_2" data-name="Capa 2"><g id="Seccion_Cursos_-_Tema_08" data-name="Seccion Cursos - Tema 08"><path class="cls-1" d="M2.41,15.67h4.5A15.13,15.13,0,0,0,6,21.42c0,.36,0,.56,0,.69a2.41,2.41,0,0,0,4.82-.05v-.61c0-3.81,4.89-5.95,8.58-6.87a1.82,1.82,0,0,0,1.66,1.09h6a.6.6,0,0,0,.6-.6V.6a.6.6,0,0,0-.6-.6h-6a1.81,1.81,0,0,0-1.65,1.07L18.59.85A19.55,19.55,0,0,0,12.51,0H6A2.42,2.42,0,0,0,4,3.75,2.42,2.42,0,0,0,2.41,6a2.48,2.48,0,0,0,.4,1.34,2.4,2.4,0,0,0-1.6,2.27A2.43,2.43,0,0,0,1.61,11a2.41,2.41,0,0,0,.8,4.69ZM20.49,1.81a.6.6,0,0,1,.6-.6h5.42V14.46H21.09a.6.6,0,0,1-.6-.6ZM2.41,12.05h3a.6.6,0,1,0,0-1.2H3.62a1.21,1.21,0,1,1,0-2.41h3a.61.61,0,0,0,0-1.21H4.82A1.19,1.19,0,0,1,3.62,6a1.21,1.21,0,0,1,1.2-1.21h3a.6.6,0,1,0,0-1.2H6A1.21,1.21,0,1,1,6,1.21h6.48A18.39,18.39,0,0,1,18.28,2l1,.26v11.1c-4.36,1-9.64,3.57-9.64,8.07v.61a1.21,1.21,0,0,1-2.41,0h0a14,14,0,0,1,1-6.39h2a.61.61,0,1,0,0-1.21H2.41a1.21,1.21,0,0,1,0-2.41Z"/></g></g></svg>