<svg xmlns="http://www.w3.org/2000/svg" xmlns:xlink="http://www.w3.org/1999/xlink" viewBox="0 0 72 59.14"><defs><style>.cls-1{fill:none;}.cls-2{fill:#c8ea73;}.cls-3{fill:#b7e445;}.cls-4{fill:#ecf4ff;}.cls-5{fill:#cbe2ff;}.cls-6{clip-path:url(#clip-path);}.cls-7{fill:#9dc6fb;}.cls-8{fill:#dd5790;}.cls-9{fill:#f6e266;}.cls-10{fill:#f1d333;}.cls-11{fill:#e49542;}</style><clipPath id="clip-path" transform="translate(0 -0.06)"><rect class="cls-1" width="72" height="59.25"/></clipPath></defs><g id="Capa_2" data-name="Capa 2"><g id="Seccion_Progreso_-_Mis_Medallas" data-name="Seccion Progreso - Mis Medallas"><path class="cls-2" d="M70.55,49.81H1.45A1.45,1.45,0,0,1,0,48.36V1.5A1.44,1.44,0,0,1,1.45.06h69.1A1.44,1.44,0,0,1,72,1.5V48.36a1.45,1.45,0,0,1-1.45,1.45Z" transform="translate(0 -0.06)"/><path class="cls-3" d="M50.72,40.74a75.25,75.25,0,0,1-15.84,9.07H70.55A1.45,1.45,0,0,0,72,48.36V15.52c-4.2,9-11.49,17.93-21.28,25.22Z" transform="translate(0 -0.06)"/><path class="cls-4" d="M4.68,43.68V6.19A1.45,1.45,0,0,1,6.13,4.74H65.87a1.45,1.45,0,0,1,1.45,1.45V43.68a1.45,1.45,0,0,1-1.45,1.45H6.13a1.45,1.45,0,0,1-1.45-1.45Z" transform="translate(0 -0.06)"/><path class="cls-5" d="M50.72,40.74c-2.15,1.6-4.35,3.06-6.57,4.39H65.87a1.45,1.45,0,0,0,1.45-1.45v-20a72.81,72.81,0,0,1-16.6,17.07Z" transform="translate(0 -0.06)"/><g class="cls-6"><path class="cls-7" d="M25.76,12.66V10.87a1.44,1.44,0,0,1,1.45-1.45H44.79a1.44,1.44,0,0,1,1.45,1.45v1.79a1.44,1.44,0,0,1-1.45,1.44H27.21a1.44,1.44,0,0,1-1.45-1.44Z" transform="translate(0 -0.06)"/><path class="cls-8" d="M61.65,59.09,57.48,56.9a.89.89,0,0,0-.81,0l-4.18,2.19a.86.86,0,0,1-1.27-.77V43.66H62.93V58.32a.87.87,0,0,1-1.28.77Z" transform="translate(0 -0.06)"/></g><path class="cls-9" d="M67.32,39.57A10.25,10.25,0,1,1,57.07,29.32,10.25,10.25,0,0,1,67.32,39.57Z" transform="translate(0 -0.06)"/><path class="cls-10" d="M62.48,30.87A10.24,10.24,0,0,1,48.37,45a10.24,10.24,0,1,0,14.11-14.1Z" transform="translate(0 -0.06)"/><path class="cls-11" d="M62.63,39.57A5.56,5.56,0,1,1,57.07,34a5.56,5.56,0,0,1,5.56,5.56Z" transform="translate(0 -0.06)"/><path class="cls-7" d="M56.05,19.87H16a1.09,1.09,0,1,1,0-2.17h40.1a1.09,1.09,0,1,1,0,2.17Z" transform="translate(0 -0.06)"/><path class="cls-7" d="M56.05,24.56H16a1.09,1.09,0,0,1,0-2.18h40.1a1.09,1.09,0,1,1,0,2.18Z" transform="translate(0 -0.06)"/><path class="cls-7" d="M40,29.24H16a1.09,1.09,0,1,1,0-2.17H40a1.09,1.09,0,1,1,0,2.17Z" transform="translate(0 -0.06)"/><path class="cls-8" d="M23.85,33.92H16a1.09,1.09,0,1,1,0-2.17h7.9a1.09,1.09,0,1,1,0,2.17Z" transform="translate(0 -0.06)"/><path class="cls-8" d="M23.85,38.61H16a1.09,1.09,0,0,1,0-2.18h7.9a1.09,1.09,0,0,1,0,2.18Z" transform="translate(0 -0.06)"/></g></g></svg>