<svg xmlns="http://www.w3.org/2000/svg" viewBox="0 0 41.89 42.11"><defs><style>.cls-1{fill:#fff;}</style></defs><g id="Capa_2" data-name="Capa 2"><g id="Seccion_Cursos_-_Tema_05" data-name="Seccion Cursos - Tema 05"><path class="cls-1" d="M37,1.68a5.78,5.78,0,0,0-8.18,0l-2,2.06L5.13,25.61l0,.05s0,0,0,0a.76.76,0,0,0-.08.11s0,0,0,0a.47.47,0,0,0-.06.09s0,0,0,0a.36.36,0,0,0,0,.09s0,0,0,0L.06,40.6a1.15,1.15,0,0,0,.28,1.18,1.2,1.2,0,0,0,.82.33,1.15,1.15,0,0,0,.37-.06L16,37.16s0,0,0,0l.1,0h0L16.3,37l.1-.09s0,0,0,0,0,0,0,0L40.21,13a5.78,5.78,0,0,0,0-8.17ZM15.65,34.44l-8.07-8L27.64,6.22l8.08,8ZM6.46,28.57l7.05,7L3,39.12ZM38.57,11.35l-1.22,1.24-8.07-8,1.23-1.24a3.46,3.46,0,0,1,4.9,0l3.16,3.13a3.48,3.48,0,0,1,0,4.91Z"/></g></g></svg>