<svg xmlns="http://www.w3.org/2000/svg" viewBox="0 0 26.17 26"><defs><style>.cls-1{fill:#29abe2;}</style></defs><g id="Capa_2" data-name="Capa 2"><g id="Seccion_Cursos_-_Tema" data-name="Seccion Cursos - Tema"><path class="cls-1" d="M26,12.47c-2.38-2.9-7.42-6.28-12.91-6.28S2.53,9.59.17,12.47a.77.77,0,0,0,0,1c2.44,3,7.49,6.28,12.92,6.28,5.62,0,10.63-3.5,12.91-6.28a.77.77,0,0,0,0-1ZM18.31,13a5.23,5.23,0,1,1-5.22-5.23A5.22,5.22,0,0,1,18.31,13ZM1.81,13A18.72,18.72,0,0,1,7.7,8.86a6.77,6.77,0,0,0,0,8.19A18.41,18.41,0,0,1,1.81,13Zm16.66,4.09a6.75,6.75,0,0,0,0-8.18A18.05,18.05,0,0,1,24.36,13a18.49,18.49,0,0,1-5.89,4.09Z"/><path class="cls-1" d="M10.49,13a2.6,2.6,0,1,0,2.6-2.6,2.6,2.6,0,0,0-2.6,2.6Zm3.67,0a1.07,1.07,0,1,1-1.07-1.07A1.07,1.07,0,0,1,14.16,13Z"/><path class="cls-1" d="M13.09,3.31a.76.76,0,0,0,.76-.76V.76a.77.77,0,0,0-1.53,0V2.55a.76.76,0,0,0,.77.76Z"/><path class="cls-1" d="M17.65,4.34a.76.76,0,0,0,1-.29l1-1.78a.77.77,0,0,0-.29-1,.76.76,0,0,0-1,.29l-1,1.78a.77.77,0,0,0,.29,1Z"/><path class="cls-1" d="M7.44,4a.76.76,0,0,0,1,.28.77.77,0,0,0,.29-1.05l-1-1.79a.77.77,0,1,0-1.34.76Z"/><path class="cls-1" d="M13.09,22.69a.76.76,0,0,0-.77.76v1.79a.77.77,0,0,0,1.53,0V23.45a.76.76,0,0,0-.76-.76Z"/><path class="cls-1" d="M8.52,21.66a.76.76,0,0,0-1,.29l-1,1.78a.77.77,0,0,0,.29,1.05.76.76,0,0,0,1-.29l1-1.78a.77.77,0,0,0-.29-1.05Z"/><path class="cls-1" d="M18.69,22a.76.76,0,0,0-1-.29.77.77,0,0,0-.29,1.05l1,1.78a.76.76,0,0,0,1,.29.77.77,0,0,0,.29-1.05Z"/></g></g></svg>