<svg xmlns="http://www.w3.org/2000/svg" viewBox="0 0 27.73 28.27"><defs><style>.cls-1{fill:#5458ea;}</style></defs><g id="Capa_2" data-name="Capa 2"><g id="Seccion_Anuncios_02" data-name="Seccion Anuncios 02"><path class="cls-1" d="M6.06,6.73H.67A.67.67,0,0,1,0,6.06V.67A.67.67,0,0,1,.67,0H6.06a.67.67,0,0,1,.67.67V6.06A.67.67,0,0,1,6.06,6.73ZM1.35,5.38h4v-4h-4Z"/><path class="cls-1" d="M6.06,17.5H.67A.67.67,0,0,1,0,16.83V11.44a.67.67,0,0,1,.67-.67H6.06a.67.67,0,0,1,.67.67v5.39A.67.67,0,0,1,6.06,17.5ZM1.35,16.15h4v-4h-4Z"/><path class="cls-1" d="M6.06,28.27H.67A.67.67,0,0,1,0,27.59V22.21a.67.67,0,0,1,.67-.67H6.06a.67.67,0,0,1,.67.67v5.38A.67.67,0,0,1,6.06,28.27ZM1.35,26.92h4v-4h-4Z"/><path class="cls-1" d="M17.06,6.73H11.67A.67.67,0,0,1,11,6.06V.67A.67.67,0,0,1,11.67,0h5.39a.67.67,0,0,1,.67.67V6.06A.67.67,0,0,1,17.06,6.73ZM12.35,5.38h4v-4h-4Z"/><path class="cls-1" d="M17.06,17.5H11.67a.67.67,0,0,1-.67-.67V11.44a.67.67,0,0,1,.67-.67h5.39a.67.67,0,0,1,.67.67v5.39A.67.67,0,0,1,17.06,17.5Zm-4.71-1.35h4v-4h-4Z"/><path class="cls-1" d="M17.06,28.27H11.67a.67.67,0,0,1-.67-.68V22.21a.67.67,0,0,1,.67-.67h5.39a.67.67,0,0,1,.67.67v5.38A.67.67,0,0,1,17.06,28.27Zm-4.71-1.35h4v-4h-4Z"/><path class="cls-1" d="M27.06,6.73H21.67A.67.67,0,0,1,21,6.06V.67A.67.67,0,0,1,21.67,0h5.39a.67.67,0,0,1,.67.67V6.06A.67.67,0,0,1,27.06,6.73ZM22.35,5.38h4v-4h-4Z"/><path class="cls-1" d="M27.06,17.5H21.67a.67.67,0,0,1-.67-.67V11.44a.67.67,0,0,1,.67-.67h5.39a.67.67,0,0,1,.67.67v5.39A.67.67,0,0,1,27.06,17.5Zm-4.71-1.35h4v-4h-4Z"/><path class="cls-1" d="M27.06,28.27H21.67a.67.67,0,0,1-.67-.68V22.21a.67.67,0,0,1,.67-.67h5.39a.67.67,0,0,1,.67.67v5.38A.67.67,0,0,1,27.06,28.27Zm-4.71-1.35h4v-4h-4Z"/></g></g></svg>