<svg xmlns="http://www.w3.org/2000/svg" viewBox="0 0 30.96 30.96"><defs><style>.cls-1{fill:#29abe2;}</style></defs><g id="Capa_2" data-name="Capa 2"><g id="Seccion_Cursos_-_Tema_08" data-name="Seccion Cursos - Tema 08"><path class="cls-1" d="M26.43,4.53a15.5,15.5,0,1,0,4.53,11A15.42,15.42,0,0,0,26.43,4.53ZM15.48,29.12A13.64,13.64,0,1,1,29.12,15.48,13.66,13.66,0,0,1,15.48,29.12Z"/><path class="cls-1" d="M8,12.7a2,2,0,0,1,2.87,0,.92.92,0,0,0,1.3,0,.93.93,0,0,0,0-1.31,3.87,3.87,0,0,0-5.47,0A.92.92,0,0,0,8,12.7Z"/><path class="cls-1" d="M20.1,12.7a2,2,0,0,1,2.89,0,.91.91,0,0,0,.65.27.93.93,0,0,0,.66-1.58,3.93,3.93,0,0,0-5.52,0,.93.93,0,0,0,0,1.31A1,1,0,0,0,20.1,12.7Z"/><path class="cls-1" d="M23.82,16.45,7.49,15.87a.92.92,0,0,0-1,.88,9.09,9.09,0,1,0,18.17.66A.93.93,0,0,0,23.82,16.45Zm-8.45,7.87a7.25,7.25,0,0,1-7-6.58l14.37.52A7.25,7.25,0,0,1,15.37,24.32Z"/></g></g></svg>