<svg xmlns="http://www.w3.org/2000/svg" viewBox="0 0 30.96 28.27"><defs><style>.cls-1{fill:#4d4d4d;}</style></defs><g id="Capa_2" data-name="Capa 2"><g id="Seccion_Anuncios_01" data-name="Seccion Anuncios 01"><path class="cls-1" d="M6.06,6.73H.67A.67.67,0,0,1,0,6.06V.67A.67.67,0,0,1,.67,0H6.06a.67.67,0,0,1,.67.67V6.06A.67.67,0,0,1,6.06,6.73ZM1.35,5.38h4v-4h-4Z"/><path class="cls-1" d="M6.06,17.5H.67A.67.67,0,0,1,0,16.83V11.44a.67.67,0,0,1,.67-.67H6.06a.67.67,0,0,1,.67.67v5.39A.67.67,0,0,1,6.06,17.5ZM1.35,16.15h4v-4h-4Z"/><path class="cls-1" d="M6.06,28.27H.67A.67.67,0,0,1,0,27.59V22.21a.67.67,0,0,1,.67-.67H6.06a.67.67,0,0,1,.67.67v5.38A.67.67,0,0,1,6.06,28.27ZM1.35,26.92h4v-4h-4Z"/><path class="cls-1" d="M30.29,6.73H10.1a.67.67,0,0,1-.68-.67V.67A.67.67,0,0,1,10.1,0H30.29A.67.67,0,0,1,31,.67V6.06A.67.67,0,0,1,30.29,6.73ZM10.77,5.38H29.61v-4H10.77Z"/><path class="cls-1" d="M30.29,17.5H10.1a.67.67,0,0,1-.68-.67V11.44a.67.67,0,0,1,.68-.67H30.29a.67.67,0,0,1,.67.67v5.39A.67.67,0,0,1,30.29,17.5ZM10.77,16.15H29.61v-4H10.77Z"/><path class="cls-1" d="M30.29,28.27H10.1a.67.67,0,0,1-.68-.68V22.21a.67.67,0,0,1,.68-.67H30.29a.67.67,0,0,1,.67.67v5.38A.67.67,0,0,1,30.29,28.27ZM10.77,26.92H29.61v-4H10.77Z"/></g></g></svg>