<svg xmlns="http://www.w3.org/2000/svg" viewBox="0 0 15.75 20.05"><defs><style>.cls-1{fill:#b3b3b3;}</style></defs><g id="Capa_2" data-name="Capa 2"><g id="Seccion_Cursos" data-name="Seccion Cursos"><path class="cls-1" d="M7.88,0A6.46,6.46,0,0,0,1.43,6.44v.72H.72A.72.72,0,0,0,0,7.88V19.33a.72.72,0,0,0,.72.72H15a.71.71,0,0,0,.71-.72V7.88A.71.71,0,0,0,15,7.16h-.72V6.44A6.45,6.45,0,0,0,7.88,0Zm-5,6.44a5,5,0,0,1,10,0v.72h-10ZM14.32,18.62H1.43v-10H14.32Z"/><path class="cls-1" d="M7.88,10.74a2.15,2.15,0,0,0-.72,4.17v1.56a.72.72,0,1,0,1.43,0V14.91a2.15,2.15,0,0,0-.71-4.17Zm0,2.87a.72.72,0,0,1,0-1.44.72.72,0,0,1,0,1.44Z"/></g></g></svg>