<svg xmlns="http://www.w3.org/2000/svg" xmlns:xlink="http://www.w3.org/1999/xlink" viewBox="0 0 192.48 43.48"><defs><style>.cls-1{isolation:isolate;}.cls-2,.cls-7{fill:#5458ea;}.cls-3{opacity:0.5;}.cls-3,.cls-5{mix-blend-mode:multiply;}.cls-4{fill:url(#Degradado_sin_nombre_30);}.cls-5{opacity:0.4;fill:url(#Degradado_sin_nombre_34);}.cls-6{fill:#5768e2;}.cls-7{font-size:27.16px;font-family:Gilroy-ExtraBold, Gilroy;font-weight:800;}.cls-8{letter-spacing:-0.04em;}.cls-10,.cls-11,.cls-9{font-family:Gilroy-Medium;font-weight:500;}.cls-9{letter-spacing:0em;}.cls-10{letter-spacing:0em;}.cls-11{letter-spacing:0em;}</style><linearGradient id="Degradado_sin_nombre_30" x1="28.66" y1="27.14" x2="22.99" y2="27.93" gradientUnits="userSpaceOnUse"><stop offset="0"/><stop offset="0.18" stop-color="#0d0d0d" stop-opacity="0.92"/><stop offset="0.47" stop-color="#313030" stop-opacity="0.71"/><stop offset="0.56" stop-color="#3f3e3e" stop-opacity="0.62"/><stop offset="0.88" stop-color="#c7c7c7" stop-opacity="0.18"/><stop offset="1" stop-color="#fff" stop-opacity="0"/></linearGradient><linearGradient id="Degradado_sin_nombre_34" x1="22.15" y1="13.61" x2="24.41" y2="17.51" gradientUnits="userSpaceOnUse"><stop offset="0"/><stop offset="0.09" stop-color="#080808" stop-opacity="0.97"/><stop offset="0.1" stop-color="#0b0b0b" stop-opacity="0.96"/><stop offset="1" stop-color="#fff" stop-opacity="0"/></linearGradient></defs><g class="cls-1"><g id="Capa_2" data-name="Capa 2"><g id="Seccion_Anuncios_02" data-name="Seccion Anuncios 02"><path class="cls-2" d="M21.42,18.54,15.88,30.25a2.57,2.57,0,0,1-4.64-2.19l5.58-11.8Z"/><path class="cls-2" d="M13.57,31.72A2.56,2.56,0,0,1,12,27.11c5.39-4.06,10.16-4,13.22-3.25a14.63,14.63,0,0,1,6.25,3.35A2.57,2.57,0,0,1,28,30.93c-.93-.87-5.88-5-12.83.27A2.58,2.58,0,0,1,13.57,31.72Z"/><g class="cls-3"><path class="cls-4" d="M29.22,31.58A2.46,2.46,0,0,1,28,30.93a9.06,9.06,0,0,0-4.31-2.19l-1.09-5.27a13.07,13.07,0,0,1,2.69.39,13.56,13.56,0,0,1,2.23.76Z"/></g><path class="cls-2" d="M32.06,28.06l-8-16.91a2.57,2.57,0,0,0-4.64,2.2l8,16.9a2.56,2.56,0,0,0,2.32,1.47,2.51,2.51,0,0,0,1.09-.25A2.55,2.55,0,0,0,32.06,28.06Z"/><path class="cls-5" d="M22.91,20.71,21.3,17.29,23,10a2.58,2.58,0,0,1,1.06,1.13L26,15.25Z"/><path class="cls-2" d="M16.82,16.26l2.42-5.11a2.56,2.56,0,1,1,4.63,2.2l-2.45,5.19Z"/><path class="cls-2" d="M22.65,9.93l-.28-.11L19,17.32l2.46,1.22,2.45-5.19A2.57,2.57,0,0,0,22.65,9.93Z"/><path class="cls-6" d="M21.74,43.48A21.74,21.74,0,1,1,43.48,21.74,21.76,21.76,0,0,1,21.74,43.48Zm0-39.38A17.64,17.64,0,1,0,39.38,21.74,17.66,17.66,0,0,0,21.74,4.1Z"/><text class="cls-7" transform="translate(57.58 31.69)"><tspan class="cls-8">L</tspan><tspan x="11.95" y="0">OGO</tspan></text></g></g></g></svg>