<svg xmlns="http://www.w3.org/2000/svg" viewBox="0 0 184.11 57.59"><defs><style>.cls-1{fill:#fff;}</style></defs><g id="Capa_2" data-name="Capa 2"><g id="Seccion_Login" data-name="Seccion Login"><path class="cls-1" d="M22.38,30.71l4.5,3.81A15.31,15.31,0,0,1,15.08,40,14.85,14.85,0,0,1,0,25.36,14.89,14.89,0,0,1,15.08,10.72a15.34,15.34,0,0,1,11.8,5.48L22.38,20a8.88,8.88,0,0,0-7.3-3.77A8.86,8.86,0,0,0,6,25.36a8.9,8.9,0,0,0,9.08,9.12,8.88,8.88,0,0,0,7.3-3.77"/><path class="cls-1" d="M51.6,17.62v22H46V38.17A10.57,10.57,0,0,1,40,40c-6.45,0-9.41-3-9.41-10.14V17.62H36.2v12.2c0,3.41,1.66,5.07,4.78,5.07a7.56,7.56,0,0,0,5-1.74V17.62Z"/><path class="cls-1" d="M62.38,19.38c2.2-2.61,7.87-1.5,8.31-1.34v5.54A15.83,15.83,0,0,0,68,23.25c-4,0-5.59,2.88-5.59,5.76V39.63H56.7v-22h5.68Z"/><path class="cls-1" d="M75.27,33.67a17.47,17.47,0,0,0,7.54,1.79c2.59,0,3.61-1,3.61-2.11s-1.26-1.83-4.67-2.56c-4.74-1.05-8.19-2.59-8.19-6.85,0-4,3.29-6.73,8.4-6.73A22.17,22.17,0,0,1,90.55,19l-1.86,4.14a20.56,20.56,0,0,0-6.85-1.42c-2.15,0-3.25.77-3.25,1.95s1.34,1.78,4.87,2.51C88.57,27.23,91.53,29,91.53,33c0,4.18-3.21,6.94-8.84,6.94a19.37,19.37,0,0,1-9.53-2.11Z"/><path class="cls-1" d="M117.59,17.62v22H112V38a11.47,11.47,0,0,1-6.44,2c-6.9,0-11-5.56-11-11.4s4-11.39,11-11.39A13,13,0,0,1,112,19V17.62ZM112,24.18a8.44,8.44,0,0,0-5.43-1.9,6.31,6.31,0,1,0,0,12.61A8.29,8.29,0,0,0,112,33Z"/><path class="cls-1" d="M155.86,17.62v22h-5.63V38a11.53,11.53,0,0,1-6.45,2c-6.89,0-10.95-5.56-10.95-11.4s4.06-11.39,10.95-11.39A13,13,0,0,1,150.23,19V17.62Zm-5.63,6.56a8.47,8.47,0,0,0-5.44-1.9,6.31,6.31,0,1,0,0,12.61A8.31,8.31,0,0,0,150.23,33Z"/><path class="cls-1" d="M184.11,28.6A11,11,0,0,1,173,40a12.55,12.55,0,0,1-6.4-1.75v1.38h-5.64V9.06h5.64v9.81a13.44,13.44,0,0,1,6.4-1.66c6.17,0,11.15,4.5,11.15,11.39m-5.55,0A6.3,6.3,0,0,0,172,22.28a8.42,8.42,0,0,0-5.39,1.86V33A8.26,8.26,0,0,0,172,34.89c3.81,0,6.61-2.55,6.61-6.29"/><rect class="cls-1" x="125.62" y="12.43" width="5.59" height="27.53"/><path class="cls-1" d="M117.61,14.25V5.33h8V9.06h5.59V3.81a3.91,3.91,0,0,0-4-3.81H116a3.91,3.91,0,0,0-4,3.81V14.25Z"/><polygon class="cls-1" points="112.02 43.33 112.02 48.68 121.62 57.59 131.21 48.68 131.21 43.33 112.02 43.33"/><polygon class="cls-1" points="7.29 51.78 7.29 52.72 3.36 52.72 3.36 47.24 4.47 47.24 4.47 51.78 7.29 51.78"/><path class="cls-1" d="M13.32,48.5v4.22H12.24v-.31a2.24,2.24,0,0,1-1.24.37,2.18,2.18,0,0,1,0-4.36,2.48,2.48,0,0,1,1.24.35V48.5Zm-1.08,1.26a1.59,1.59,0,0,0-1-.37,1.21,1.21,0,1,0,0,2.42,1.56,1.56,0,0,0,1-.36Z"/><polygon class="cls-1" points="24.65 47.24 24.65 52.72 23.53 52.72 23.53 49.69 21.84 52.06 20.14 49.69 20.14 52.72 19.03 52.72 19.03 47.24 19.57 47.24 21.84 50.38 24.11 47.24 24.65 47.24"/><path class="cls-1" d="M27.66,50.92a1.16,1.16,0,0,0,1.21.93A1.37,1.37,0,0,0,30,51.33l.69.58a2.33,2.33,0,0,1-1.91.87,2.18,2.18,0,0,1,0-4.36,2,2,0,0,1,2.05,2.26v.24Zm0-.7h2.09a.92.92,0,0,0-1-.93,1.1,1.1,0,0,0-1.07.93"/><path class="cls-1" d="M36.9,46.86v5.86H35.81v-.26a2.48,2.48,0,0,1-1.23.33,2.19,2.19,0,0,1,0-4.37,2.61,2.61,0,0,1,1.23.32V46.86Zm-1.09,4.58V49.75a1.59,1.59,0,0,0-1-.36,1.21,1.21,0,0,0-1.26,1.22,1.19,1.19,0,0,0,1.26,1.2,1.56,1.56,0,0,0,1-.37"/><path class="cls-1" d="M38.89,47.42a.63.63,0,0,1,.62-.64.63.63,0,0,1,.61.64.61.61,0,0,1-.61.62.62.62,0,0,1-.62-.62M39,48.5h1.08v4.22H39Z"/><path class="cls-1" d="M46.38,48.5v4.22H45.3v-.31a2.24,2.24,0,0,1-1.24.37,2.18,2.18,0,0,1,0-4.36,2.48,2.48,0,0,1,1.24.35V48.5ZM45.3,49.76a1.61,1.61,0,0,0-1-.37,1.21,1.21,0,1,0,0,2.42,1.58,1.58,0,0,0,1-.36Z"/><path class="cls-1" d="M54.43,52.72H52.09V47.24h2.17A2.75,2.75,0,0,1,57,50a2.69,2.69,0,0,1-2.58,2.74m-.09-1A1.68,1.68,0,0,0,55.92,50a1.7,1.7,0,0,0-1.66-1.72H53.17V51.7Z"/><path class="cls-1" d="M58.87,47.42a.63.63,0,0,1,.62-.64.63.63,0,0,1,.61.64.61.61,0,0,1-.61.62.62.62,0,0,1-.62-.62M59,48.5H60v4.22H59Z"/><path class="cls-1" d="M66.37,48.5v3.41a2.1,2.1,0,0,1-2.2,2.27,5,5,0,0,1-1.9-.28l.21-.79a5.08,5.08,0,0,0,1.43.24,1.23,1.23,0,0,0,1.34-1,2.54,2.54,0,0,1-1.18.29,2.09,2.09,0,1,1,0-4.18,2.49,2.49,0,0,1,1.22.32V48.5Zm-2.12,3.13a1.57,1.57,0,0,0,1-.34V49.74a1.59,1.59,0,0,0-1-.35A1.16,1.16,0,0,0,63,50.51a1.14,1.14,0,0,0,1.25,1.12"/><path class="cls-1" d="M68.37,47.42a.62.62,0,1,1,1.24,0,.62.62,0,1,1-1.24,0m.09,1.08h1.07v4.22H68.46Z"/><path class="cls-1" d="M73,49.39v1.49c0,.76.12,1,.66,1,.19,0,.35,0,.5,0v.8a2.5,2.5,0,0,1-1,.16,1.21,1.21,0,0,1-1.27-1.33V49.39h-.6V48.5h.6V46.86H73V48.5h1.18v.89Z"/><path class="cls-1" d="M80.18,48.5v4.22H79.1v-.31a2.23,2.23,0,0,1-1.23.37,2.18,2.18,0,0,1,0-4.36,2.48,2.48,0,0,1,1.23.35V48.5ZM79.1,49.76a1.59,1.59,0,0,0-1-.37,1.21,1.21,0,1,0,0,2.42,1.56,1.56,0,0,0,1-.36Z"/><rect class="cls-1" x="82.25" y="46.86" width="1.09" height="5.85"/></g></g></svg>