<svg xmlns="http://www.w3.org/2000/svg" xmlns:xlink="http://www.w3.org/1999/xlink" viewBox="0 0 46.49 59.12"><defs><style>.cls-1{fill:none;}.cls-2{clip-path:url(#clip-path);}.cls-3{fill:#ffe07d;}.cls-4{fill:#ffd064;}.cls-5{fill:#e8ae4d;}.cls-6{fill:#e5a32e;}</style><clipPath id="clip-path" transform="translate(0 0)"><rect class="cls-1" width="46.5" height="59.12"/></clipPath></defs><g id="Capa_2" data-name="Capa 2"><g id="Seccion_Progreso_-_Mis_Medallas" data-name="Seccion Progreso - Mis Medallas"><g class="cls-2"><path class="cls-3" d="M11.86,52.6,20.1,32.71,13.48,30,4,52.89a1.23,1.23,0,0,0,1.5,1.65l5.38-1.65a1.13,1.13,0,0,1,.48,0Z" transform="translate(0 0)"/><path class="cls-4" d="M19.74,32.57,11.35,52.84a1.24,1.24,0,0,1,1,.65l2.64,5a1.23,1.23,0,0,0,2.23-.1l9.49-22.92Z" transform="translate(0 0)"/><path class="cls-3" d="M26.94,32.49l-7.13,2.95L29.3,58.36a1.23,1.23,0,0,0,2.23.1l2.64-5a1.34,1.34,0,0,1,.32-.39l.64-.81Z" transform="translate(0 0)"/><path class="cls-4" d="M42.51,52.89,33,30l-6.93,2.87,8.4,20.26a1.23,1.23,0,0,1,1.13-.21L41,54.54a1.24,1.24,0,0,0,1.51-1.65Z" transform="translate(0 0)"/><path class="cls-5" d="M25.63.83a3.84,3.84,0,0,0,3.52.66A3.83,3.83,0,0,1,33.6,3.21a3.85,3.85,0,0,0,3,1.89,3.82,3.82,0,0,1,3.52,3.21,3.88,3.88,0,0,0,2.16,2.86,3.82,3.82,0,0,1,2.13,4.26,3.82,3.82,0,0,0,1,3.45,3.83,3.83,0,0,1,.44,4.74,3.81,3.81,0,0,0-.33,3.57,3.84,3.84,0,0,1-1.31,4.59A3.81,3.81,0,0,0,42.64,35a3.85,3.85,0,0,1-2.88,3.81,3.82,3.82,0,0,0-2.64,2.41,3.85,3.85,0,0,1-4.06,2.51A3.86,3.86,0,0,0,29.72,45a3.82,3.82,0,0,1-4.68.88,3.84,3.84,0,0,0-3.58,0A3.84,3.84,0,0,1,16.77,45a3.84,3.84,0,0,0-3.34-1.29,3.83,3.83,0,0,1-4-2.51,3.82,3.82,0,0,0-2.65-2.41A3.85,3.85,0,0,1,3.86,35a3.82,3.82,0,0,0-1.6-3.2A3.84,3.84,0,0,1,1,27.19a3.87,3.87,0,0,0-.33-3.57,3.82,3.82,0,0,1,.44-4.74,3.87,3.87,0,0,0,1-3.45,3.82,3.82,0,0,1,2.12-4.26A3.83,3.83,0,0,0,6.33,8.31,3.84,3.84,0,0,1,9.85,5.1,3.85,3.85,0,0,0,12.9,3.21a3.82,3.82,0,0,1,4.44-1.72A3.84,3.84,0,0,0,20.86.83a3.83,3.83,0,0,1,4.77,0Z" transform="translate(0 0)"/></g><path class="cls-3" d="M33.71,23.16a17.78,17.78,0,0,0-12-16.84,16.91,16.91,0,0,0,0,33.68A17.78,17.78,0,0,0,33.71,23.16Z" transform="translate(0 0)"/><path class="cls-4" d="M23.25,6.24a16.69,16.69,0,0,0-3.77.43,16.92,16.92,0,0,1,0,33,17.28,17.28,0,0,0,3.77.42,16.92,16.92,0,0,0,0-33.84Z" transform="translate(0 0)"/><path class="cls-5" d="M23.71,29.65l5.84,3.93a.8.8,0,0,0,.71.11c.2-.28.4-.56.59-.86a.55.55,0,0,0,0-.17L28.89,25.9a.82.82,0,0,1,.29-.89l4.46-3.49a18.75,18.75,0,0,0-.39-2.38l-6.05-.21a.83.83,0,0,1-.75-.55L24,11.77a.84.84,0,0,0-1.57,0l-2.41,6.61a.84.84,0,0,1-.75.55l-7,.25a.83.83,0,0,0-.48,1.49L17.32,25a.83.83,0,0,1,.29.88l-1.94,6.77a.83.83,0,0,0,1.27.92l5.84-3.93a.83.83,0,0,1,.93,0Z" transform="translate(0 0)"/><path class="cls-6" d="M29.55,33.58a.83.83,0,0,0,1.27-.92l-.35-1.22a17.63,17.63,0,0,1-1.26,1.92Z" transform="translate(0 0)"/><path class="cls-6" d="M34.23,19.18l-2.09-.08a17.13,17.13,0,0,1,.47,3.22l2.11-1.65a.84.84,0,0,0-.49-1.49Z" transform="translate(0 0)"/></g></g></svg>