<svg id="Capa_1" data-name="Capa 1" xmlns="http://www.w3.org/2000/svg" viewBox="0 0 21.31 21.48"><defs><style>.cls-1{fill:#fff;}</style></defs><path class="cls-1" d="M981,529.26H960.36a.36.36,0,0,0-.36.36v14.2a.36.36,0,0,0,.36.35h6.42l-2.95,3a.36.36,0,0,0,0,.5.32.32,0,0,0,.25.1h2.66v2.66a.35.35,0,0,0,.6.26l3.27-3.27h.07l3.26,3.27a.37.37,0,0,0,.5,0,.36.36,0,0,0,.11-.26v-2.66h2.66a.35.35,0,0,0,.35-.35.33.33,0,0,0-.1-.25l-3-3H981a.36.36,0,0,0,.36-.35v-14.2A.36.36,0,0,0,981,529.26Zm-13.49,20.27v-2.16a.36.36,0,0,0-.36-.36h-2.16l2.28-2.27v.07a.14.14,0,0,1,0,.06,3.62,3.62,0,0,0,.13.35,1.34,1.34,0,0,0,.06.12,1.3,1.3,0,0,0,.14.26,1.76,1.76,0,0,0,.14.23l.18.24,0,0,.2.22.2.18a.18.18,0,0,0,.07,0,1.66,1.66,0,0,0,.21.16l.24.16.26.14.12.05a2.37,2.37,0,0,0,.34.13l.16,0Zm3.92-3,0,0-.25,0-.28,0h-.31l-.28,0-.24,0-.06,0-.12,0-.28-.11-.08,0-.22-.11-.19-.13-.18-.14,0,0-.18-.16-.16-.17a.05.05,0,0,0,0,0l-.15-.2a1.08,1.08,0,0,1-.11-.18,1.05,1.05,0,0,1-.12-.21l0-.09c0-.09-.07-.19-.1-.28a.61.61,0,0,1,0-.11l0,0a2,2,0,0,0,0-.24l0-.28v-.16a2.84,2.84,0,0,1,5.68,0V544l0,.28a1.44,1.44,0,0,1-.05.24v.06s0,.07,0,.12a2.31,2.31,0,0,1-.1.28l0,.08a1.51,1.51,0,0,1-.11.22,2.14,2.14,0,0,1-.13.19l-.13.18,0,0a1.29,1.29,0,0,1-.16.17l-.17.17,0,0-.2.15-.17.11-.22.12-.1,0-.28.1Zm5,.45H974.2a.36.36,0,0,0-.35.36v2.16l-2.28-2.28h.07l.07,0,.34-.13.13-.05.27-.15.22-.14.23-.17,0,0a2.09,2.09,0,0,0,.22-.2,1.54,1.54,0,0,0,.18-.2l.06-.06a1.77,1.77,0,0,0,.16-.22,1.43,1.43,0,0,0,.16-.24l.14-.26,0-.12a3.42,3.42,0,0,0,.13-.34.83.83,0,0,0,0-.15Zm4.23-3.55h-6.4s0-.06,0-.09a2.17,2.17,0,0,0,0-.25l0-.13a1.17,1.17,0,0,0-.05-.2.78.78,0,0,0,0-.14l-.06-.18-.07-.14a1.19,1.19,0,0,0-.08-.16s0-.09-.07-.13l-.09-.16-.09-.12-.11-.15-.1-.12-.12-.13-.11-.11-.13-.11-.12-.1-.14-.11-.13-.09-.15-.09-.13-.08-.17-.07-.14-.07-.17-.06-.14-.05-.2,0-.13,0-.23,0-.11,0h-.71l-.12,0-.22,0-.14,0-.19,0-.14.05-.18.06-.13.07-.17.07-.13.08-.16.09-.12.09-.15.11a.52.52,0,0,0-.11.1l-.14.11-.11.11-.11.13-.1.12s-.07.1-.11.15l-.09.12-.09.16-.08.13c0,.05,0,.11-.08.16l-.06.14a1.34,1.34,0,0,1-.07.18c0,.05,0,.09,0,.14l-.06.2,0,.13c0,.08,0,.17,0,.25s0,.06,0,.09h-6.41V530h19.88Z" transform="translate(-960 -529.26)"/><polygon class="cls-1" points="10.65 12.43 10.65 12.43 10.65 12.43 10.65 12.43"/><path class="cls-1" d="M970.65,541.69a2.13,2.13,0,0,0-2.13,2.14v.09a2,2,0,0,1,0,.23.37.37,0,0,0,.36.3H969a.36.36,0,0,0,.3-.4.88.88,0,0,1,0-.17v-.06a1.42,1.42,0,0,1,1.42-1.42.36.36,0,1,0,0-.71Z" transform="translate(-960 -529.26)"/><path class="cls-1" d="M964.26,533.52H977a.36.36,0,1,0,0-.71H964.26a.36.36,0,0,0,0,.71Z" transform="translate(-960 -529.26)"/><path class="cls-1" d="M964.26,535.65H977a.36.36,0,1,0,0-.71H964.26a.36.36,0,0,0,0,.71Z" transform="translate(-960 -529.26)"/><path class="cls-1" d="M964.26,537.78H977a.36.36,0,1,0,0-.71H964.26a.36.36,0,0,0,0,.71Z" transform="translate(-960 -529.26)"/></svg>