<svg id="Capa_1" data-name="Capa 1" xmlns="http://www.w3.org/2000/svg" viewBox="0 0 21.13 27"><defs><style>.cls-1{fill:#fff;}</style></defs><path class="cls-1" d="M970.08,542.87h-6.36V532.26a.43.43,0,0,0-.44-.44h-6.59a.44.44,0,0,0-.44.44v5.13h-6.33a.47.47,0,0,0-.48.48V553a.47.47,0,0,0,.48.48h20.16a.47.47,0,0,0,.48-.48v-9.67A.48.48,0,0,0,970.08,542.87Zm-13.83,10h-6.16V538.05h6.16Zm6.81,0h-6.15V532.48h6.15Zm6.85,0h-6.19v-9.31h6.19Z" transform="translate(-949.44 -526.5)"/><path class="cls-1" d="M951.78,534.85l-.18,1.08a.44.44,0,0,0,.63.46l1-.51,1,.51a.45.45,0,0,0,.47,0,.42.42,0,0,0,.17-.42l-.18-1.08.78-.76a.44.44,0,0,0,.11-.45.45.45,0,0,0-.35-.3l-1.09-.15-.48-1a.46.46,0,0,0-.4-.25.44.44,0,0,0-.39.25l-.49,1-1.08.15a.46.46,0,0,0-.36.3.45.45,0,0,0,.12.45Zm.75-1a.42.42,0,0,0,.33-.24l.34-.68.34.68a.45.45,0,0,0,.33.24l.76.11-.55.53a.43.43,0,0,0-.12.39l.13.75-.68-.36a.49.49,0,0,0-.41,0l-.68.36.13-.75a.44.44,0,0,0-.13-.39l-.54-.53Z" transform="translate(-949.44 -526.5)"/><path class="cls-1" d="M958.58,529.39l-.19,1.07a.44.44,0,0,0,.64.46l1-.5,1,.5a.44.44,0,0,0,.64-.46l-.19-1.07.79-.76a.44.44,0,0,0,.11-.45.43.43,0,0,0-.36-.3l-1.08-.16-.49-1a.44.44,0,0,0-.78,0l-.49,1-1.08.16a.43.43,0,0,0-.36.3.44.44,0,0,0,.11.45Zm.75-1a.43.43,0,0,0,.33-.24l.34-.69.34.69a.43.43,0,0,0,.33.24l.76.11-.55.53a.46.46,0,0,0-.13.39l.13.75-.68-.36a.41.41,0,0,0-.4,0l-.68.36.13-.75a.46.46,0,0,0-.13-.39l-.55-.53Z" transform="translate(-949.44 -526.5)"/><path class="cls-1" d="M965.7,540.53l-.18,1.07a.43.43,0,0,0,.17.43.45.45,0,0,0,.46,0l1-.51,1,.51a.45.45,0,0,0,.46,0,.43.43,0,0,0,.17-.43l-.18-1.07.78-.76a.42.42,0,0,0,.11-.45.43.43,0,0,0-.35-.3l-1.09-.16-.48-1a.46.46,0,0,0-.4-.25.44.44,0,0,0-.39.25l-.48,1-1.09.16a.43.43,0,0,0-.35.3.42.42,0,0,0,.11.45Zm.75-1a.42.42,0,0,0,.33-.24l.34-.68.34.68a.45.45,0,0,0,.33.24l.76.11-.55.53a.43.43,0,0,0-.12.39l.13.75-.68-.36a.49.49,0,0,0-.41,0l-.68.36.13-.75a.44.44,0,0,0-.13-.39l-.54-.53Z" transform="translate(-949.44 -526.5)"/></svg>