<svg id="Capa_1" data-name="Capa 1" xmlns="http://www.w3.org/2000/svg" viewBox="0 0 20 19.55"><defs><style>.cls-1{fill:#fff;}</style></defs><path class="cls-1" d="M960,533.23a6.77,6.77,0,1,0,6.77,6.77A6.78,6.78,0,0,0,960,533.23ZM960,546a6,6,0,1,1,6-6A6,6,0,0,1,960,546Z" transform="translate(-950 -530.23)"/><path class="cls-1" d="M969.47,541.34a2,2,0,0,0,0-2.68,2.57,2.57,0,0,1-.38-.73,2.8,2.8,0,0,1,0-.86,2.39,2.39,0,0,0-.1-1.4,2.51,2.51,0,0,0-1-1,2.65,2.65,0,0,1-.67-.5,2.62,2.62,0,0,1-.35-.77,1.91,1.91,0,0,0-2.06-1.65,2.39,2.39,0,0,1-.83-.17,2.68,2.68,0,0,1-.64-.53,2.51,2.51,0,0,0-1.19-.82,2.46,2.46,0,0,0-1.38.22,1.78,1.78,0,0,1-1.68,0,2.46,2.46,0,0,0-1.38-.22,2.51,2.51,0,0,0-1.19.82,2.68,2.68,0,0,1-.64.53,2.39,2.39,0,0,1-.83.17,1.91,1.91,0,0,0-2.06,1.65,2.62,2.62,0,0,1-.35.77,2.65,2.65,0,0,1-.67.5,2.51,2.51,0,0,0-1,1,2.39,2.39,0,0,0-.1,1.4,2.8,2.8,0,0,1,0,.86,2.57,2.57,0,0,1-.38.73,2,2,0,0,0,0,2.68,2.57,2.57,0,0,1,.38.73,2.8,2.8,0,0,1,0,.86,2.39,2.39,0,0,0,.1,1.4,2.51,2.51,0,0,0,1,1,2.65,2.65,0,0,1,.67.5,2.62,2.62,0,0,1,.35.77,1.91,1.91,0,0,0,2.06,1.65,2.39,2.39,0,0,1,.83.17,2.68,2.68,0,0,1,.64.53,2.51,2.51,0,0,0,1.19.82,2.46,2.46,0,0,0,1.38-.22,1.79,1.79,0,0,1,1.68,0,3.34,3.34,0,0,0,1.07.25,1.63,1.63,0,0,0,.31,0,2.51,2.51,0,0,0,1.19-.82,2.68,2.68,0,0,1,.64-.53,2.39,2.39,0,0,1,.83-.17,1.91,1.91,0,0,0,2.06-1.65,2.62,2.62,0,0,1,.35-.77,2.65,2.65,0,0,1,.67-.5,2.51,2.51,0,0,0,1-1,2.39,2.39,0,0,0,.1-1.4,2.8,2.8,0,0,1,0-.86A2.57,2.57,0,0,1,969.47,541.34Zm-.66-.42a3.08,3.08,0,0,0-.48,1,3.24,3.24,0,0,0,0,1.12,1.94,1.94,0,0,1,0,1,1.91,1.91,0,0,1-.76.64,3.27,3.27,0,0,0-.87.69,3.08,3.08,0,0,0-.48,1,2,2,0,0,1-.45.88,1.92,1.92,0,0,1-1,.24,3.38,3.38,0,0,0-1.09.24,3.43,3.43,0,0,0-.86.7,2.1,2.1,0,0,1-.8.6,2.05,2.05,0,0,1-.95-.2,2.54,2.54,0,0,0-2.2,0,2.05,2.05,0,0,1-.95.2,2.1,2.1,0,0,1-.8-.6,3.43,3.43,0,0,0-.86-.7,3.38,3.38,0,0,0-1.09-.24,1.92,1.92,0,0,1-1-.24,2,2,0,0,1-.45-.88,3.08,3.08,0,0,0-.48-1,3.44,3.44,0,0,0-.87-.69,1.91,1.91,0,0,1-.76-.64,1.94,1.94,0,0,1,0-1,3.24,3.24,0,0,0,0-1.12,3.08,3.08,0,0,0-.48-1,1.24,1.24,0,0,1,0-1.84,3.08,3.08,0,0,0,.48-1,3.24,3.24,0,0,0,0-1.12,1.94,1.94,0,0,1,0-1,1.91,1.91,0,0,1,.76-.64,3.27,3.27,0,0,0,.87-.69,3.08,3.08,0,0,0,.48-1,2,2,0,0,1,.45-.88,1.92,1.92,0,0,1,1-.24,3.38,3.38,0,0,0,1.09-.24,3.43,3.43,0,0,0,.86-.7,2.1,2.1,0,0,1,.8-.6,2.16,2.16,0,0,1,.95.19,2.46,2.46,0,0,0,2.2,0,2.16,2.16,0,0,1,.95-.19,2.1,2.1,0,0,1,.8.6,3.43,3.43,0,0,0,.86.7,3.38,3.38,0,0,0,1.09.24,1.92,1.92,0,0,1,1,.24,2,2,0,0,1,.45.88,3.08,3.08,0,0,0,.48,1,3.44,3.44,0,0,0,.87.69,1.91,1.91,0,0,1,.76.64,1.94,1.94,0,0,1,0,1,3.24,3.24,0,0,0,0,1.12,3.08,3.08,0,0,0,.48,1,1.24,1.24,0,0,1,0,1.84Z" transform="translate(-950 -530.23)"/><path class="cls-1" d="M963.72,538.81l-2.14-.63-1.26-1.84a.39.39,0,0,0-.64,0l-1.26,1.84-2.14.63a.4.4,0,0,0-.26.26.39.39,0,0,0,.06.36l1.36,1.77-.06,2.23a.35.35,0,0,0,.16.32.36.36,0,0,0,.36,0l2.1-.74,2.1.74a.31.31,0,0,0,.13,0,.4.4,0,0,0,.23-.08.35.35,0,0,0,.16-.32l-.06-2.23,1.36-1.77a.39.39,0,0,0,.06-.36A.4.4,0,0,0,963.72,538.81Zm-1.86,2a.33.33,0,0,0-.08.25l.05,1.8-1.7-.61-.13,0-.13,0-1.7.61.05-1.8a.33.33,0,0,0-.08-.25L957,539.4l1.73-.51a.36.36,0,0,0,.21-.15l1-1.49,1,1.49a.36.36,0,0,0,.21.15l1.73.51Z" transform="translate(-950 -530.23)"/></svg>