<svg id="Capa_1" data-name="Capa 1" xmlns="http://www.w3.org/2000/svg" viewBox="0 0 16.44 21.04"><defs><style>.cls-1{fill:#fff;}</style></defs><path class="cls-1" d="M955.36,538.48l1.93-2.31a.33.33,0,0,0,0-.44.31.31,0,0,0-.44,0l-1.65,2-.36-.58a.31.31,0,1,0-.52.32l.58,1A.31.31,0,0,0,955.36,538.48Z" transform="translate(-951.78 -529.48)"/><path class="cls-1" d="M954.28,541.56l.58,1a.31.31,0,0,0,.5,0l1.93-2.31a.32.32,0,0,0,0-.44.31.31,0,0,0-.44,0l-1.65,2-.36-.58a.31.31,0,1,0-.52.32Z" transform="translate(-951.78 -529.48)"/><path class="cls-1" d="M954.28,545.66l.58,1a.3.3,0,0,0,.5,0l1.93-2.31a.31.31,0,0,0-.48-.39l-1.65,2-.36-.59a.31.31,0,1,0-.52.33Z" transform="translate(-951.78 -529.48)"/><path class="cls-1" d="M967.91,546.88a.31.31,0,0,0-.31.31v2.24a.48.48,0,0,1-.47.48H952.87a.48.48,0,0,1-.47-.48V535.92a.31.31,0,1,0-.62,0v13.51a1.09,1.09,0,0,0,1.09,1.09h14.26a1.09,1.09,0,0,0,1.09-1.09v-2.24A.31.31,0,0,0,967.91,546.88Z" transform="translate(-951.78 -529.48)"/><path class="cls-1" d="M967.13,531.85h-1.51v-1.27a1.1,1.1,0,1,0-2.2,0v1.27H961.1v-1.27a1.1,1.1,0,1,0-2.2,0v1.27h-2.32v-1.27a1.1,1.1,0,1,0-2.2,0v1.27h-1.51a1.09,1.09,0,0,0-1.09,1.09v1.54a.31.31,0,0,0,.62,0v-1.54a.47.47,0,0,1,.47-.47h1.51V533a1.1,1.1,0,1,0,2.2,0v-.49h2.32V533a1.1,1.1,0,1,0,2.2,0v-.49h2.32V533a1.1,1.1,0,1,0,2.2,0v-.49h1.51a.47.47,0,0,1,.47.47v12.81a.31.31,0,0,0,.62,0V532.94A1.09,1.09,0,0,0,967.13,531.85ZM956,533a.47.47,0,0,1-.48.48A.48.48,0,0,1,955,533v-2.38a.49.49,0,0,1,.49-.49.48.48,0,0,1,.48.49Zm4.53,0a.49.49,0,0,1-1,0v-2.38a.49.49,0,1,1,1,0Zm4.52,0a.48.48,0,0,1-.49.48A.47.47,0,0,1,964,533v-2.38a.48.48,0,0,1,.48-.49.49.49,0,0,1,.49.49Z" transform="translate(-951.78 -529.48)"/><path class="cls-1" d="M958.59,538.73h6.5a1,1,0,0,0,0-1.93h-6.5a1,1,0,0,0,0,1.93Zm0-1.31h6.5a.35.35,0,0,1,.35.35.35.35,0,0,1-.35.35h-6.5a.35.35,0,0,1-.35-.35A.35.35,0,0,1,958.59,537.42Z" transform="translate(-951.78 -529.48)"/><path class="cls-1" d="M958.59,542.81h6.5a1,1,0,0,0,0-1.93h-6.5a1,1,0,0,0,0,1.93Zm0-1.31h6.5a.35.35,0,1,1,0,.69h-6.5a.35.35,0,1,1,0-.69Z" transform="translate(-951.78 -529.48)"/><path class="cls-1" d="M958.59,546.89h6.5a1,1,0,0,0,0-1.93h-6.5a1,1,0,0,0,0,1.93Zm0-1.32h6.5a.35.35,0,0,1,.35.35.35.35,0,0,1-.35.35h-6.5a.35.35,0,0,1-.35-.35A.35.35,0,0,1,958.59,545.57Z" transform="translate(-951.78 -529.48)"/></svg>