<svg id="Capa_1" data-name="Capa 1" xmlns="http://www.w3.org/2000/svg" viewBox="0 0 22.88 22.89"><defs><style>.cls-1{fill:#fff;}</style></defs><path class="cls-1" d="M971.44,542.54c0-3.9-3.5-7.08-7.81-7.08-.3,0-.6,0-.91,0v-5.32a1.63,1.63,0,0,0-1.63-1.63h-10.9a1.63,1.63,0,0,0-1.63,1.63v11.63a.55.55,0,0,0,.9.41l2-1.69h4.7a6.49,6.49,0,0,0-.32,2c0,3.7,3.15,6.78,7.19,7.06l2.49,1.74a.55.55,0,0,0,.85-.55l-.31-1.51a8,8,0,0,0,3.71-2.33A6.6,6.6,0,0,0,971.44,542.54Zm-20.2-3.09a.59.59,0,0,0-.36.13l-1.23,1.06V530.19a.54.54,0,0,1,.54-.54h10.9a.54.54,0,0,1,.54.54v5.5a8,8,0,0,0-3.11,1.51l-2.37-5.76a.55.55,0,0,0-.51-.34.53.53,0,0,0-.5.34l-2.55,6.17a.61.61,0,0,0,0,.42.62.62,0,0,0,.3.3.56.56,0,0,0,.42,0,.52.52,0,0,0,.29-.29l.61-1.48h2.86l.59,1.43a7.62,7.62,0,0,0-1.06,1.47Zm5.38-4h-2l1-2.38Zm8.67,12.89a.54.54,0,0,0-.41.64l.13.68-1.5-1a.56.56,0,0,0-.28-.1c-3.54-.18-6.32-2.81-6.32-6s3-6,6.72-6,6.72,2.69,6.72,6A6.15,6.15,0,0,1,965.29,548.35Z" transform="translate(-948.56 -528.56)"/><path class="cls-1" d="M966.13,544.79a4.47,4.47,0,0,0,.59-2.25,4.33,4.33,0,0,0-.86-2.64,2.71,2.71,0,0,0-4.46,0,4.5,4.5,0,0,0,0,5.29,2.84,2.84,0,0,0,2.23,1.17,2.72,2.72,0,0,0,1.82-.73l.75.61a.53.53,0,0,0,.76-.09.54.54,0,0,0-.08-.76Zm-.86-.69-.21-.17a.53.53,0,0,0-.76.09.54.54,0,0,0,.08.76l.2.16a1.63,1.63,0,0,1-1,.33c-1.1,0-2-1.23-2-2.73s.9-2.72,2-2.72,2,1.22,2,2.72A3.5,3.5,0,0,1,965.27,544.1Z" transform="translate(-948.56 -528.56)"/></svg>