<svg id="Capa_1" data-name="Capa 1" xmlns="http://www.w3.org/2000/svg" viewBox="0 0 20.42 19.43"><defs><style>.cls-1{fill:#fff;}</style></defs><path class="cls-1" d="M969.22,536.54H965.6V533.9a.28.28,0,0,0-.09-.22l-3.29-3.3,0,0-.06,0h0l-.08,0h-7.27a.32.32,0,0,0-.33.32v4h-3.62a1,1,0,0,0-1,1v13.18a1,1,0,0,0,1,1h18.44a1,1,0,0,0,1-1v-11.2A1,1,0,0,0,969.22,536.54Zm-6.91-5.13,2.15,2.17h-2.15Zm-7.25-.47h6.59v3a.33.33,0,0,0,.33.33h3v2.3h-4.47l-1.88-1.88a.36.36,0,0,0-.24-.09h-3.29Zm14.49,17.79a.33.33,0,0,1-.33.33H950.78a.33.33,0,0,1-.33-.33V535.55a.32.32,0,0,1,.33-.32h7.44l1.88,1.87a.29.29,0,0,0,.23.1h8.89a.33.33,0,0,1,.33.33Z" transform="translate(-949.79 -530.29)"/><path class="cls-1" d="M952.76,547.74h-.33l-.66-.66v-.33a.33.33,0,0,0-.66,0v1.32a.33.33,0,0,0,.33.33h1.32a.33.33,0,0,0,0-.66Z" transform="translate(-949.79 -530.29)"/></svg>