<svg id="Capa_1" data-name="Capa 1" xmlns="http://www.w3.org/2000/svg" viewBox="0 0 38.19 21.19"><defs><style>.cls-1{fill:#fff;}</style></defs><path class="cls-1" d="M956,539.24H943.49l2.49-2.49a.76.76,0,0,0-1.07-1.07l-3.78,3.79a.81.81,0,0,0-.17.24.83.83,0,0,0,0,.58.85.85,0,0,0,.17.25l3.78,3.78a.76.76,0,1,0,1.09-1.05l0,0-2.49-2.49H956a.76.76,0,0,0,0-1.52Z" transform="translate(-940.91 -529.41)"/><path class="cls-1" d="M976.82,529.41H967a2.26,2.26,0,0,0-2.27,2.27v4.54a.75.75,0,0,0,.75.75.76.76,0,0,0,.76-.75v-4.54a.76.76,0,0,1,.76-.76h9.83a.76.76,0,0,1,.76.76v16.64a.76.76,0,0,1-.76.76H967a.76.76,0,0,1-.76-.76v-4.54a.76.76,0,0,0-.76-.75.75.75,0,0,0-.75.75v4.54a2.26,2.26,0,0,0,2.27,2.27h9.83a2.26,2.26,0,0,0,2.27-2.27V531.68A2.26,2.26,0,0,0,976.82,529.41Z" transform="translate(-940.91 -529.41)"/></svg>