<svg id="Capa_1" data-name="Capa 1" xmlns="http://www.w3.org/2000/svg" viewBox="0 0 25.2 25.2"><defs><style>.cls-1{fill:#fff;}</style></defs><path class="cls-1" d="M960,527.4A12.6,12.6,0,1,0,972.6,540,12.61,12.61,0,0,0,960,527.4Zm0,23.1A10.5,10.5,0,1,1,970.5,540,10.51,10.51,0,0,1,960,550.5Z" transform="translate(-947.4 -527.4)"/><path class="cls-1" d="M959.86,546.88h0Z" transform="translate(-947.4 -527.4)"/><path class="cls-1" d="M960.06,533.12a5.27,5.27,0,0,0-3.94,1.61.82.82,0,0,0-.18.52.89.89,0,0,0,.84.87.9.9,0,0,0,.59-.22,3.39,3.39,0,0,1,2.49-1c1.42,0,2.1.76,2.1,1.66,0,1.94-3.44,2.18-3.44,4.69,0,.61.38,1.73,1.17,1.73h0a.77.77,0,0,0,.77-.77c0-.28-.2-.52-.2-.8,0-1.89,3.69-2.16,3.78-5.09C964.06,534.49,962.55,533.12,960.06,533.12Z" transform="translate(-947.4 -527.4)"/><path class="cls-1" d="M959.82,544.36a1.26,1.26,0,0,0-1.25,1.25v.06a1.24,1.24,0,0,0,1.26,1.2,1.26,1.26,0,0,0,1.24-1.26A1.28,1.28,0,0,0,959.82,544.36Z" transform="translate(-947.4 -527.4)"/></svg>