<svg xmlns="http://www.w3.org/2000/svg" xmlns:xlink="http://www.w3.org/1999/xlink" viewBox="0 0 104.1 136"><defs><style>.cls-1{fill:none;}.cls-2{font-size:14px;font-family:Quicksand-Regular, Quicksand;}.cls-2,.cls-6{fill:#666;}.cls-3{letter-spacing:-0.02em;}.cls-4{opacity:0.5;}.cls-5{clip-path:url(#clip-path);}.cls-7{fill:#4d4d4d;}.cls-8{fill:gray;}</style><clipPath id="clip-path" transform="translate(0 0)"><rect class="cls-1" x="15.39" width="73.31" height="93.21"/></clipPath></defs><g id="Capa_2" data-name="Capa 2"><g id="Seccion_Progreso_-_Mis_Medallas" data-name="Seccion Progreso - Mis Medallas"><text class="cls-2" transform="translate(25.73 120.84)">Nomb<tspan class="cls-3" x="39.72" y="0">r</tspan><tspan x="44.8" y="0">e</tspan></text><g class="cls-4"><g class="cls-5"><path class="cls-6" d="M34.09,82.93l13-31.35L36.65,47.26l-15,36.12A2,2,0,0,0,24.05,86l8.49-2.6a1.88,1.88,0,0,1,.74-.08Z" transform="translate(0 0)"/><path class="cls-7" d="M46.52,51.35l-13.24,32a1.94,1.94,0,0,1,1.55,1L39,92.18A2,2,0,0,0,42.51,92l15-36.13Z" transform="translate(0 0)"/><path class="cls-6" d="M57.87,51.23,46.62,55.88,61.59,92a2,2,0,0,0,3.52.17l4.16-7.84a1.86,1.86,0,0,1,.5-.61l1-1.29Z" transform="translate(0 0)"/><path class="cls-7" d="M82.42,83.38l-15-36.12L56.54,51.78l13.23,32a1.94,1.94,0,0,1,1.79-.34L80.05,86a2,2,0,0,0,2.37-2.61Z" transform="translate(0 0)"/><path class="cls-8" d="M55.81,1.31a6.05,6.05,0,0,0,5.55,1,6,6,0,0,1,7,2.71,6,6,0,0,0,4.8,3,6,6,0,0,1,5.55,5.06,6.07,6.07,0,0,0,3.41,4.51,6,6,0,0,1,3.35,6.72A6,6,0,0,0,87,29.76a6.05,6.05,0,0,1,.69,7.49,6.06,6.06,0,0,0-.52,5.62,6,6,0,0,1-2,7.23,6,6,0,0,0-2.52,5.06,6,6,0,0,1-4.53,6A6,6,0,0,0,73.92,65a6,6,0,0,1-6.39,4,6.08,6.08,0,0,0-5.27,2,6,6,0,0,1-7.39,1.39,6,6,0,0,0-5.64,0A6,6,0,0,1,41.84,71a6.08,6.08,0,0,0-5.27-2,6,6,0,0,1-6.39-4A6.06,6.06,0,0,0,26,61.15a6,6,0,0,1-4.53-6A6.06,6.06,0,0,0,19,50.1a6,6,0,0,1-2.05-7.23,6,6,0,0,0-.53-5.62,6.07,6.07,0,0,1,.7-7.49,6,6,0,0,0,1.54-5.43A6,6,0,0,1,22,17.61a6.07,6.07,0,0,0,3.41-4.51A6,6,0,0,1,30.93,8a6,6,0,0,0,4.8-3,6,6,0,0,1,7-2.71,6.05,6.05,0,0,0,5.55-1,6,6,0,0,1,7.52,0Z" transform="translate(0 0)"/></g><circle class="cls-7" cx="52.05" cy="37.21" r="27"/></g></g></g></svg>