<svg xmlns="http://www.w3.org/2000/svg" viewBox="0 0 21 21"><defs><style>.cls-1{fill:#fff;}</style></defs><g id="Capa_2" data-name="Capa 2"><g id="Seccion_Cursos_-_Tema_02" data-name="Seccion Cursos - Tema 02"><path class="cls-1" d="M17.92,3.08a10.48,10.48,0,0,0-14.84,0,10.48,10.48,0,0,0,0,14.84,10.48,10.48,0,0,0,14.84,0,10.48,10.48,0,0,0,0-14.84ZM10.5,19.77a9.27,9.27,0,1,1,9.27-9.27,9.28,9.28,0,0,1-9.27,9.27Z"/><path class="cls-1" d="M15.37,10,8,4.67a.62.62,0,0,0-1,.5V15.83a.62.62,0,0,0,.34.55.55.55,0,0,0,.28.07A.6.6,0,0,0,8,16.33L15.37,11a.61.61,0,0,0,0-1ZM8.24,14.63V6.37L14,10.5Z"/></g></g></svg>