<svg xmlns="http://www.w3.org/2000/svg" xmlns:xlink="http://www.w3.org/1999/xlink" viewBox="0 0 28.7 27.55"><defs><style>.cls-1{fill:none;}.cls-2{clip-path:url(#clip-path);}.cls-3{fill:#666;}</style><clipPath id="clip-path"><rect class="cls-1" width="28.7" height="27.58"/></clipPath></defs><g id="Capa_2" data-name="Capa 2"><g id="Seccion_Anuncios_02" data-name="Seccion Anuncios 02"><g class="cls-2"><path class="cls-3" d="M28.64,15.1a11.31,11.31,0,0,0-8.8-9.92V3.76A1.91,1.91,0,0,0,19.38,0h-4a1.91,1.91,0,0,0-.46,3.76V5.18a11.31,11.31,0,0,0-5.52,3A10.79,10.79,0,0,0,8.42,9.3h-4a.56.56,0,1,0,0,1.12H7.66a10.73,10.73,0,0,0-1,2.15H.56a.56.56,0,1,0,0,1.12H6.34a11.2,11.2,0,0,0-.27,2.16H3.59a.56.56,0,1,0,0,1.12H6.08a12.05,12.05,0,0,0,.35,2.15H2.8a.56.56,0,0,0,0,1.12h4a11.32,11.32,0,0,0,9.47,7.25,10.32,10.32,0,0,0,1.11.06,11.42,11.42,0,0,0,6.18-1.83.57.57,0,0,0,.16-.78.56.56,0,0,0-.78-.16,10.2,10.2,0,1,1,3-3,.56.56,0,1,0,.94.61,11.32,11.32,0,0,0,1.76-7.28ZM14.56,1.91a.79.79,0,0,1,.79-.79h4a.79.79,0,1,1,0,1.57h-4a.79.79,0,0,1-.79-.78ZM16,5V3.81h2.71V5A11.17,11.17,0,0,0,16,5Z"/></g><path class="cls-3" d="M25,23.27a.58.58,0,0,0-.56.56.54.54,0,0,0,.17.4.57.57,0,0,0,.39.16.58.58,0,0,0,.4-.16.54.54,0,0,0,.17-.4.54.54,0,0,0-.17-.39.54.54,0,0,0-.4-.17Z"/><path class="cls-3" d="M17.37,7.53a8.7,8.7,0,1,0,8.7,8.69,8.7,8.7,0,0,0-8.7-8.69Zm0,16.27A7.58,7.58,0,1,1,25,16.22a7.59,7.59,0,0,1-7.58,7.58Z"/><path class="cls-3" d="M20.92,11.89l-2.78,2.77a1.72,1.72,0,0,0-1.53,0l-1.25-1.24a.56.56,0,0,0-.79.79l1.24,1.25a1.77,1.77,0,0,0-.18.76,1.75,1.75,0,1,0,3.49,0,1.77,1.77,0,0,0-.18-.76l2.77-2.78a.56.56,0,0,0-.79-.79Zm-3.55,5a.63.63,0,1,1,.63-.63.63.63,0,0,1-.63.63Z"/><path class="cls-3" d="M23.37,15.67h-.52a.56.56,0,1,0,0,1.12h.52a.56.56,0,0,0,0-1.12Z"/><path class="cls-3" d="M11.9,15.66h-.52a.56.56,0,0,0,0,1.12h.52a.56.56,0,0,0,0-1.12Z"/><path class="cls-3" d="M17.38,11.31a.56.56,0,0,0,.56-.56v-.52a.56.56,0,1,0-1.12,0v.52a.56.56,0,0,0,.56.56Z"/><path class="cls-3" d="M17.37,21.14a.56.56,0,0,0-.56.56v.52a.56.56,0,1,0,1.12,0V21.7a.56.56,0,0,0-.56-.56Z"/><path class="cls-3" d="M.56,19.12a.56.56,0,0,0-.4.17.57.57,0,0,0-.16.39.58.58,0,0,0,.16.4.59.59,0,0,0,.4.16.59.59,0,0,0,.4-.16.58.58,0,0,0,.16-.4A.57.57,0,0,0,1,19.29a.56.56,0,0,0-.4-.17Z"/></g></g></svg>