<svg xmlns="http://www.w3.org/2000/svg" viewBox="0 0 30.96 30.96"><defs><style>.cls-1{fill:#c1272d;}.cls-2{fill:none;stroke:#c1272d;stroke-miterlimit:10;stroke-width:2px;}</style></defs><g id="Capa_2" data-name="Capa 2"><g id="Seccion_Cursos_-_Tema_08" data-name="Seccion Cursos - Tema 08"><path class="cls-1" d="M26.43,4.53a15.5,15.5,0,1,0,4.53,11A15.42,15.42,0,0,0,26.43,4.53ZM15.48,29.12A13.64,13.64,0,1,1,29.12,15.48,13.66,13.66,0,0,1,15.48,29.12Z"/><path class="cls-1" d="M23.27,11a2,2,0,0,1-2.72-.91A.91.91,0,0,0,20,9.67.92.92,0,0,0,18.9,11a3.88,3.88,0,0,0,5.19,1.73A.92.92,0,0,0,23.27,11Z"/><path class="cls-1" d="M10.2,10a2,2,0,0,1-2.57,1.26.89.89,0,0,0-.7.05.91.91,0,0,0-.47.53A.92.92,0,0,0,7,13,3.88,3.88,0,0,0,12,10.61.93.93,0,0,0,10.2,10Z"/><path class="cls-2" d="M9,22.32s7-8,13,0"/></g></g></svg>