<svg xmlns="http://www.w3.org/2000/svg" xmlns:xlink="http://www.w3.org/1999/xlink" viewBox="0 0 27.03 27.1"><defs><style>.cls-1{fill:none;}.cls-2{clip-path:url(#clip-path);}.cls-3{fill:#666;}</style><clipPath id="clip-path" transform="translate(0 -0.16)"><rect class="cls-1" width="27.26" height="27.82"/></clipPath></defs><g id="Capa_2" data-name="Capa 2"><g id="Seccion_Cursos" data-name="Seccion Cursos"><g class="cls-2"><path class="cls-3" d="M18.64,13.75H15.31A1.86,1.86,0,0,0,14,12.42V7.69a.47.47,0,0,0-.47-.47.46.46,0,0,0-.46.47v4.73a1.84,1.84,0,0,0-1.4,1.79,1.86,1.86,0,0,0,3.66.47h3.33a.47.47,0,0,0,0-.93Zm-5.13,1.4a.94.94,0,1,1,.93-.94.94.94,0,0,1-.93.94Z" transform="translate(0 -0.16)"/><path class="cls-3" d="M23.35,4.71l1.91,1.91a.46.46,0,0,0,.66,0,3.78,3.78,0,0,0-5.35-5.35.45.45,0,0,0-.14.33.47.47,0,0,0,.14.33l2.12,2.12-.79.79a12.56,12.56,0,0,0-16.77,0l-.8-.79L6.46,1.93A.47.47,0,0,0,6.6,1.6a.45.45,0,0,0-.14-.33A3.78,3.78,0,0,0,1.11,6.62a.44.44,0,0,0,.33.14.47.47,0,0,0,.33-.14L3.68,4.71l.78.78A12.56,12.56,0,0,0,7.14,25.06L5.73,26.47a.47.47,0,0,0,0,.66.46.46,0,0,0,.33.13.44.44,0,0,0,.32-.13L8,25.52a12.54,12.54,0,0,0,11,0l1.61,1.61a.48.48,0,0,0,.66,0,.47.47,0,0,0,0-.66l-1.41-1.41A12.56,12.56,0,0,0,22.57,5.49Zm1.91-2.78a2.86,2.86,0,0,1,.3,3.68l-4-4a2.86,2.86,0,0,1,3.68.3ZM1.46,5.61a2.85,2.85,0,0,1,4-4ZM13.51,25.86A11.65,11.65,0,1,1,25.16,14.21,11.66,11.66,0,0,1,13.51,25.86Z" transform="translate(0 -0.16)"/></g><path class="cls-3" d="M22.78,8.83A10.8,10.8,0,0,0,18.89,5l0,0h0a10.73,10.73,0,0,0-10.67,0h0s0,0,0,0A10.85,10.85,0,0,0,4.25,8.83l0,0a0,0,0,0,1,0,0,10.67,10.67,0,0,0,0,10.67,0,0,0,0,1,0,0l0,0a10.74,10.74,0,0,0,3.87,3.88,0,0,0,0,1,0,0h0a10.68,10.68,0,0,0,10.64,0h0s0,0,0,0a10.69,10.69,0,0,0,3.88-3.88l0,0v0a10.67,10.67,0,0,0,0-10.67v0a0,0,0,0,1,0,0Zm-4,13.61-.22-.39a.47.47,0,0,0-.81.47l.22.39A9.83,9.83,0,0,1,14,24v-.45a.47.47,0,0,0-.93,0V24a9.92,9.92,0,0,1-4-1.07l.23-.39a.47.47,0,1,0-.81-.47l-.22.39A9.81,9.81,0,0,1,5.29,19.5l.38-.22a.47.47,0,0,0,.18-.64.47.47,0,0,0-.64-.17l-.39.22a9.83,9.83,0,0,1-1.07-4h.44a.47.47,0,1,0,0-.93H3.75a9.67,9.67,0,0,1,1.07-4l.39.22a.46.46,0,0,0,.23.06.46.46,0,0,0,.23-.87l-.38-.22A9.81,9.81,0,0,1,8.23,6l.22.38a.46.46,0,0,0,.4.24.44.44,0,0,0,.24-.07.47.47,0,0,0,.17-.63L9,5.52a9.72,9.72,0,0,1,4-1.07v.44a.46.46,0,0,0,.46.47A.47.47,0,0,0,14,4.89V4.45a9.67,9.67,0,0,1,4,1.07l-.22.39a.46.46,0,0,0,.17.63.39.39,0,0,0,.23.07.46.46,0,0,0,.4-.24L18.8,6a9.78,9.78,0,0,1,2.93,2.94l-.38.22a.47.47,0,0,0-.17.64.48.48,0,0,0,.4.23.53.53,0,0,0,.24-.06l.38-.23a9.61,9.61,0,0,1,1.07,4h-.44a.47.47,0,0,0,0,.93h.44a9.52,9.52,0,0,1-1.07,4l-.38-.22a.47.47,0,1,0-.47.81l.38.22a9.67,9.67,0,0,1-2.93,2.94Z" transform="translate(0 -0.16)"/></g></g></svg>