<svg xmlns="http://www.w3.org/2000/svg" viewBox="0 0 14.77 18.81"><defs><style>.cls-1{fill:#666;}.cls-2{fill:none;}</style></defs><g id="Capa_2" data-name="Capa 2"><g id="Seccion_Cursos_-_Tema_02" data-name="Seccion Cursos - Tema 02"><path class="cls-1" d="M6.72,14v1.47a.67.67,0,1,0,1.34,0V14a2,2,0,1,0-2.57-1.23A2,2,0,0,0,6.72,14Zm.67-2.56a.67.67,0,1,1-.67.67A.67.67,0,0,1,7.39,11.42Z"/><rect class="cls-2" x="1.34" y="8.06" width="12.09" height="9.4"/><path class="cls-1" d="M14.1,6.72H2.74a0,0,0,0,1-.05,0V6.21A4.8,4.8,0,0,1,5.8,1.62a4.65,4.65,0,0,1,4.63.86l1.16-.78A6.06,6.06,0,0,0,4.14.94a6.25,6.25,0,0,0-2.8,5.32v.46H.67A.67.67,0,0,0,0,7.39V18.14a.67.67,0,0,0,.67.67H14.1a.67.67,0,0,0,.67-.67V7.39A.67.67,0,0,0,14.1,6.72Zm-.67,10.74H1.34V8.06H13.43Z"/></g></g></svg>